<svg width="569" height="427" viewBox="0 0 569 427" fill="none" xmlns="http://www.w3.org/2000/svg">
<path d="M313.141 245.982C313.151 241.571 316.729 238 321.141 238H561C565.418 238 569 241.582 569 246V300.99C569 305.412 565.412 308.995 560.99 308.99L321.008 308.685C316.586 308.679 313.008 305.088 313.018 300.667L313.141 245.982Z" fill="#55FFE0"/>
<g filter="url(#filter0_f_101_98)">
<path d="M333.74 276.402L369.882 239.125L385.356 254.203L344.417 296.216L333.74 276.402Z" fill="black"/>
</g>
<path d="M412.808 252.992L413.792 272.551L432.697 267.442L414.399 274.421L425.1 290.823L412.808 275.577L400.516 290.823L411.217 274.421L392.919 267.442L411.825 272.551L412.808 252.992Z" fill="black"/>
<rect x="449.406" y="237.96" width="1.30704" height="71.2338" fill="black"/>
<rect x="374.904" y="237.96" width="1.30704" height="71.2338" fill="black"/>
<path d="M294.795 238.839C293.998 236.079 294.742 233.104 296.744 231.044L505.514 16.2041C508.596 13.0324 513.667 12.9632 516.835 16.0497L556.69 54.8858C559.854 57.9693 559.92 63.0342 556.836 66.1985L325.839 303.256C321.557 307.651 314.126 305.787 312.423 299.892L294.795 238.839Z" fill="#55FFE0"/>
<path d="M347.897 223.201L353.778 228.931L352.628 230.111L348.804 226.383L351.093 231.686L350.223 232.579L344.855 230.436L348.679 234.163L347.53 235.342L341.65 229.612L342.955 228.272L349.15 230.663L346.6 224.532L347.897 223.201ZM352.268 225.778C351.796 225.318 351.468 224.818 351.284 224.276C351.105 223.73 351.073 223.201 351.188 222.689C351.309 222.172 351.564 221.713 351.953 221.315C352.292 220.966 352.658 220.732 353.05 220.61C353.447 220.483 353.83 220.445 354.196 220.495L353.531 219.847L354.688 218.659L359.356 223.207L358.198 224.395L357.516 223.73C357.587 224.095 357.564 224.484 357.448 224.896C357.331 225.296 357.103 225.671 356.763 226.019C356.38 226.412 355.929 226.673 355.409 226.802C354.895 226.925 354.362 226.904 353.811 226.739C353.26 226.564 352.745 226.243 352.268 225.778ZM355.864 222.121C355.578 221.842 355.279 221.66 354.967 221.575C354.65 221.485 354.345 221.483 354.052 221.57C353.754 221.652 353.498 221.802 353.284 222.021C353.071 222.24 352.927 222.494 352.853 222.784C352.779 223.073 352.789 223.378 352.882 223.698C352.974 224.008 353.161 224.299 353.442 224.573C353.723 224.847 354.025 225.031 354.348 225.127C354.67 225.212 354.978 225.216 355.271 225.14C355.57 225.059 355.823 224.911 356.031 224.698C356.244 224.479 356.391 224.222 356.47 223.927C356.544 223.626 356.534 223.321 356.442 223.012C356.343 222.697 356.151 222.4 355.864 222.121ZM363.171 219.292L359.639 218.938L361.628 220.876L360.478 222.055L354.244 215.98L355.393 214.801L358.94 218.257L358.487 214.761L359.982 213.227L360.32 217.565L364.665 217.759L363.171 219.292ZM367.066 210.424C367.234 210.588 367.375 210.747 367.488 210.901L364.163 214.313C364.527 214.613 364.906 214.753 365.3 214.731C365.693 214.709 366.038 214.547 366.333 214.243C366.76 213.805 366.876 213.31 366.68 212.758L367.92 211.486C368.238 212.059 368.357 212.678 368.277 213.345C368.191 214.006 367.877 214.614 367.335 215.171C366.897 215.62 366.405 215.928 365.858 216.096C365.311 216.253 364.757 216.255 364.194 216.101C363.638 215.942 363.121 215.63 362.643 215.165C362.16 214.694 361.832 214.182 361.659 213.63C361.485 213.078 361.472 212.529 361.621 211.983C361.769 211.438 362.067 210.935 362.516 210.474C362.949 210.031 363.43 209.728 363.96 209.566C364.496 209.398 365.034 209.391 365.574 209.545C366.114 209.688 366.611 209.981 367.066 210.424ZM365.539 211.317C365.23 211.027 364.882 210.901 364.494 210.94C364.101 210.973 363.753 211.143 363.452 211.452C363.168 211.744 363.017 212.079 362.999 212.456C362.982 212.823 363.109 213.181 363.379 213.533L365.539 211.317ZM370.315 200.196L371.267 201.124L369.74 202.691L374.669 207.494L373.519 208.673L368.591 203.87L367.064 205.437L366.112 204.51L370.315 200.196ZM374.861 197.824C375.206 197.47 375.591 197.232 376.016 197.11C376.436 196.982 376.872 196.991 377.323 197.135C377.774 197.267 378.21 197.539 378.631 197.95L381.369 200.618L380.22 201.797L377.642 199.285C377.271 198.924 376.897 198.74 376.52 198.734C376.137 198.722 375.79 198.876 375.478 199.197C375.16 199.522 375.01 199.879 375.026 200.267C375.042 200.644 375.235 201.013 375.606 201.374L378.184 203.887L377.034 205.066L370.8 198.991L371.949 197.811L374.098 199.905C374.043 199.556 374.083 199.201 374.217 198.838C374.345 198.471 374.56 198.132 374.861 197.824ZM384.255 192.785C384.424 192.949 384.565 193.108 384.677 193.262L381.352 196.674C381.717 196.974 382.096 197.113 382.489 197.092C382.883 197.07 383.227 196.908 383.523 196.604C383.95 196.166 384.065 195.671 383.87 195.119L385.109 193.847C385.427 194.42 385.546 195.039 385.466 195.706C385.38 196.367 385.066 196.975 384.525 197.531C384.087 197.981 383.594 198.289 383.048 198.457C382.501 198.614 381.946 198.616 381.384 198.462C380.827 198.303 380.31 197.991 379.833 197.525C379.35 197.055 379.022 196.543 378.848 195.991C378.675 195.438 378.662 194.89 378.81 194.344C378.958 193.799 379.257 193.296 379.706 192.835C380.138 192.392 380.619 192.089 381.15 191.927C381.685 191.759 382.223 191.752 382.763 191.906C383.303 192.048 383.8 192.341 384.255 192.785ZM382.728 193.678C382.419 193.388 382.071 193.262 381.683 193.301C381.29 193.333 380.943 193.504 380.642 193.813C380.357 194.105 380.206 194.44 380.189 194.817C380.171 195.183 380.298 195.542 380.569 195.894L382.728 193.678ZM389.72 186.014C390.105 185.743 390.536 185.632 391.014 185.681C391.491 185.73 391.904 185.925 392.252 186.264C392.567 186.57 392.768 186.92 392.857 187.313C392.945 187.694 392.914 188.097 392.764 188.52C392.614 188.943 392.345 189.355 391.956 189.753L389.485 192.289L383.605 186.559L385.969 184.132C386.358 183.734 386.756 183.454 387.165 183.293C387.578 183.127 387.972 183.083 388.344 183.162C388.722 183.234 389.057 183.413 389.349 183.698C389.692 184.032 389.888 184.403 389.938 184.813C389.993 185.217 389.92 185.617 389.72 186.014ZM387.181 187.744L388.231 186.665C388.505 186.384 388.654 186.108 388.678 185.836C388.697 185.558 388.588 185.305 388.352 185.075C388.116 184.845 387.86 184.743 387.583 184.769C387.306 184.794 387.031 184.948 386.757 185.229L385.706 186.307L387.181 187.744ZM390.832 188.986C391.111 188.699 391.26 188.412 391.278 188.123C391.302 187.829 391.191 187.561 390.943 187.321C390.691 187.074 390.412 186.967 390.107 186.999C389.797 187.025 389.502 187.181 389.223 187.468L388.09 188.63L389.674 190.174L390.832 188.986ZM396.554 180.164C396.723 180.328 396.863 180.487 396.976 180.641L393.651 184.053C394.016 184.354 394.394 184.493 394.788 184.471C395.181 184.449 395.526 184.287 395.821 183.984C396.248 183.546 396.364 183.05 396.168 182.498L397.408 181.226C397.726 181.799 397.845 182.419 397.765 183.085C397.679 183.746 397.365 184.355 396.823 184.911C396.385 185.36 395.893 185.669 395.346 185.837C394.799 185.993 394.245 185.995 393.683 185.841C393.126 185.682 392.609 185.37 392.132 184.905C391.649 184.434 391.32 183.923 391.147 183.37C390.973 182.818 390.961 182.269 391.109 181.724C391.257 181.178 391.556 180.675 392.004 180.215C392.437 179.771 392.918 179.468 393.448 179.306C393.984 179.138 394.522 179.131 395.062 179.285C395.602 179.428 396.099 179.721 396.554 180.164ZM395.027 181.057C394.718 180.767 394.37 180.642 393.982 180.68C393.589 180.713 393.241 180.884 392.94 181.192C392.656 181.485 392.505 181.819 392.488 182.197C392.47 182.563 392.597 182.922 392.867 183.273L395.027 181.057ZM401.644 179.964C401.272 180.346 400.871 180.623 400.44 180.795C400.004 180.961 399.581 181.019 399.17 180.969C398.764 180.913 398.41 180.754 398.107 180.492L399.265 179.304C399.466 179.457 399.7 179.515 399.966 179.478C400.237 179.436 400.485 179.299 400.709 179.069C400.928 178.844 401.053 178.627 401.083 178.415C401.119 178.199 401.067 178.022 400.927 177.885C400.775 177.737 400.586 177.706 400.36 177.793C400.133 177.868 399.811 178.03 399.393 178.279C398.969 178.545 398.603 178.747 398.294 178.884C397.991 179.016 397.667 179.072 397.323 179.055C396.985 179.031 396.658 178.866 396.344 178.56C396.085 178.308 395.92 178.005 395.849 177.651C395.784 177.292 395.823 176.914 395.968 176.518C396.118 176.117 396.376 175.728 396.743 175.352C397.285 174.796 397.858 174.489 398.461 174.431C399.06 174.368 399.611 174.55 400.116 174.976L399.015 176.105C398.814 175.941 398.591 175.877 398.347 175.914C398.104 175.939 397.87 176.067 397.645 176.297C397.437 176.51 397.315 176.714 397.279 176.909C397.248 177.098 397.303 177.261 397.443 177.398C397.601 177.551 397.798 177.59 398.035 177.515C398.267 177.434 398.587 177.269 398.994 177.02C399.407 176.765 399.765 176.572 400.068 176.44C400.371 176.309 400.695 176.258 401.039 176.286C401.383 176.304 401.712 176.461 402.027 176.756C402.296 177.019 402.464 177.33 402.53 177.69C402.601 178.044 402.561 178.421 402.411 178.823C402.261 179.213 402.005 179.593 401.644 179.964ZM401.941 172.108L404.199 174.308C404.356 174.461 404.507 174.537 404.651 174.535C404.795 174.522 404.955 174.426 405.13 174.246L405.664 173.699L406.658 174.667L405.935 175.409C404.966 176.403 403.999 176.429 403.033 175.488L400.784 173.296L400.242 173.852L399.273 172.908L399.815 172.352L398.661 171.227L399.818 170.039L400.972 171.164L401.99 170.119L402.959 171.063L401.941 172.108ZM407.099 162.45L408.051 163.378L405.662 165.829L407.17 167.299L409 165.42L409.936 166.331L408.105 168.21L410.59 170.632L409.441 171.811L403.56 166.081L407.099 162.45ZM409.154 161.656C408.951 161.864 408.717 161.975 408.451 161.989C408.185 161.993 407.953 161.899 407.757 161.707C407.56 161.516 407.463 161.289 407.465 161.029C407.467 160.757 407.57 160.517 407.772 160.309C407.975 160.102 408.209 159.996 408.475 159.993C408.741 159.978 408.972 160.067 409.169 160.258C409.365 160.45 409.463 160.681 409.461 160.953C409.459 161.214 409.356 161.448 409.154 161.656ZM410.276 161.616L414.943 166.165L413.794 167.344L409.127 162.796L410.276 161.616ZM413.865 157.799C414.407 157.243 415.021 156.966 415.709 156.968C416.391 156.965 417.047 157.27 417.676 157.883L420.414 160.551L419.264 161.731L416.687 159.218C416.316 158.857 415.942 158.673 415.565 158.667C415.182 158.655 414.835 158.81 414.523 159.13C414.205 159.456 414.054 159.812 414.071 160.2C414.086 160.577 414.28 160.946 414.65 161.308L417.228 163.82L416.079 164.999L411.412 160.451L412.561 159.272L413.142 159.838C413.094 159.484 413.131 159.131 413.254 158.78C413.376 158.418 413.58 158.091 413.865 157.799ZM418.861 157.442C418.389 156.982 418.061 156.482 417.876 155.941C417.697 155.394 417.666 154.865 417.781 154.353C417.902 153.836 418.157 153.378 418.545 152.979C418.885 152.631 419.25 152.396 419.643 152.275C420.04 152.147 420.422 152.109 420.789 152.16L420.124 151.511L421.281 150.323L425.948 154.872L424.791 156.06L424.108 155.395C424.18 155.76 424.157 156.148 424.04 156.56C423.923 156.961 423.695 157.335 423.356 157.684C422.973 158.077 422.522 158.338 422.002 158.466C421.488 158.59 420.955 158.569 420.404 158.404C419.853 158.228 419.338 157.907 418.861 157.442ZM422.457 153.785C422.171 153.506 421.872 153.324 421.56 153.24C421.243 153.15 420.938 153.148 420.645 153.235C420.346 153.316 420.091 153.467 419.877 153.686C419.664 153.905 419.52 154.159 419.446 154.448C419.372 154.738 419.382 155.042 419.475 155.363C419.567 155.672 419.754 155.964 420.035 156.237C420.316 156.511 420.618 156.696 420.94 156.791C421.263 156.876 421.571 156.88 421.864 156.804C422.162 156.723 422.416 156.576 422.624 156.362C422.837 156.143 422.983 155.886 423.063 155.591C423.137 155.291 423.127 154.986 423.034 154.676C422.936 154.362 422.744 154.065 422.457 153.785ZM424.857 146.519C425.399 145.963 426.013 145.687 426.701 145.689C427.383 145.685 428.039 145.99 428.668 146.603L431.406 149.272L430.256 150.451L427.678 147.939C427.308 147.578 426.934 147.394 426.557 147.388C426.174 147.376 425.826 147.53 425.514 147.85C425.197 148.176 425.046 148.533 425.062 148.921C425.078 149.298 425.272 149.667 425.642 150.028L428.22 152.54L427.071 153.72L422.404 149.172L423.553 147.992L424.134 148.559C424.085 148.204 424.122 147.852 424.245 147.501C424.368 147.139 424.572 146.812 424.857 146.519ZM429.87 146.179C429.387 145.708 429.061 145.2 428.893 144.653C428.72 144.1 428.704 143.554 428.847 143.015C428.984 142.469 429.272 141.972 429.71 141.523C430.273 140.944 430.885 140.609 431.543 140.517C432.202 140.415 432.855 140.553 433.504 140.933L432.264 142.205C431.996 142.075 431.727 142.037 431.456 142.091C431.184 142.133 430.934 142.272 430.704 142.508C430.376 142.845 430.239 143.232 430.295 143.67C430.345 144.102 430.594 144.536 431.044 144.974C431.487 145.407 431.928 145.645 432.367 145.689C432.8 145.728 433.181 145.579 433.509 145.242C433.975 144.765 434.065 144.245 433.78 143.683L435.02 142.411C435.4 143.033 435.552 143.679 435.478 144.351C435.403 145.023 435.087 145.646 434.529 146.219C434.091 146.668 433.604 146.971 433.068 147.128C432.526 147.279 431.98 147.278 431.429 147.124C430.872 146.965 430.353 146.65 429.87 146.179ZM432.797 137.394C432.595 137.601 432.36 137.713 432.094 137.727C431.828 137.731 431.597 137.637 431.4 137.445C431.204 137.253 431.106 137.027 431.109 136.767C431.111 136.495 431.213 136.255 431.415 136.047C431.618 135.839 431.852 135.734 432.118 135.73C432.384 135.716 432.616 135.804 432.812 135.996C433.009 136.188 433.106 136.419 433.104 136.691C433.102 136.952 433 137.186 432.797 137.394ZM433.92 137.354L438.587 141.902L437.438 143.082L432.77 138.534L433.92 137.354ZM437.076 138.75C436.605 138.29 436.277 137.79 436.092 137.249C435.913 136.702 435.881 136.173 435.997 135.661C436.118 135.144 436.372 134.686 436.761 134.287C437.1 133.939 437.466 133.704 437.858 133.582C438.256 133.455 438.638 133.417 439.005 133.468L438.339 132.819L439.497 131.631L444.164 136.179L443.006 137.367L442.324 136.702C442.395 137.067 442.373 137.456 442.256 137.868C442.139 138.269 441.911 138.643 441.572 138.991C441.188 139.384 440.737 139.645 440.217 139.774C439.703 139.897 439.171 139.876 438.619 139.712C438.068 139.536 437.554 139.215 437.076 138.75ZM440.673 135.093C440.386 134.814 440.087 134.632 439.776 134.547C439.458 134.457 439.153 134.456 438.861 134.543C438.562 134.624 438.306 134.774 438.093 134.993C437.879 135.212 437.736 135.467 437.662 135.756C437.588 136.045 437.597 136.35 437.69 136.671C437.783 136.98 437.97 137.272 438.25 137.545C438.531 137.819 438.833 138.004 439.156 138.099C439.479 138.184 439.787 138.188 440.08 138.112C440.378 138.031 440.631 137.883 440.839 137.67C441.053 137.451 441.199 137.194 441.278 136.899C441.352 136.598 441.343 136.293 441.25 135.984C441.152 135.669 440.959 135.372 440.673 135.093ZM440.202 127.773L446.436 133.848L445.287 135.027L439.052 128.952L440.202 127.773ZM445.651 122.889C446.253 122.271 446.902 121.847 447.597 121.616C448.299 121.38 448.997 121.354 449.693 121.539C450.388 121.713 451.031 122.088 451.62 122.662C452.21 123.237 452.601 123.87 452.793 124.56C452.985 125.24 452.971 125.933 452.753 126.641C452.54 127.342 452.133 128.002 451.531 128.62L449.528 130.675L443.647 124.945L445.651 122.889ZM450.487 127.685C451.089 127.067 451.386 126.425 451.378 125.76C451.369 125.095 451.059 124.464 450.446 123.867C449.834 123.27 449.193 122.974 448.522 122.977C447.845 122.974 447.206 123.282 446.604 123.9L445.791 124.734L449.675 128.519L450.487 127.685ZM457.206 117.925C457.374 118.089 457.515 118.248 457.628 118.402L454.303 121.814C454.667 122.114 455.046 122.254 455.44 122.232C455.833 122.21 456.178 122.048 456.473 121.744C456.9 121.306 457.016 120.811 456.82 120.259L458.06 118.987C458.378 119.56 458.497 120.179 458.417 120.846C458.331 121.507 458.017 122.116 457.475 122.672C457.037 123.121 456.545 123.429 455.998 123.597C455.451 123.754 454.897 123.756 454.334 123.602C453.778 123.443 453.261 123.131 452.783 122.666C452.3 122.195 451.972 121.683 451.799 121.131C451.625 120.579 451.612 120.03 451.761 119.484C451.909 118.939 452.207 118.436 452.656 117.976C453.089 117.532 453.57 117.229 454.1 117.067C454.636 116.899 455.174 116.892 455.714 117.046C456.254 117.189 456.751 117.482 457.206 117.925ZM455.679 118.818C455.37 118.528 455.022 118.402 454.634 118.441C454.24 118.474 453.893 118.644 453.592 118.953C453.308 119.245 453.157 119.58 453.139 119.957C453.122 120.324 453.249 120.683 453.519 121.034L455.679 118.818ZM457.85 117.466C457.367 116.995 457.042 116.487 456.874 115.94C456.701 115.387 456.685 114.841 456.828 114.301C456.965 113.756 457.253 113.259 457.69 112.81C458.254 112.231 458.865 111.896 459.524 111.804C460.183 111.702 460.836 111.84 461.484 112.22L460.245 113.492C459.977 113.362 459.707 113.324 459.436 113.378C459.165 113.42 458.915 113.559 458.685 113.795C458.356 114.132 458.22 114.519 458.276 114.957C458.325 115.389 458.575 115.823 459.024 116.261C459.468 116.694 459.909 116.932 460.348 116.976C460.781 117.015 461.162 116.866 461.49 116.529C461.955 116.051 462.046 115.532 461.761 114.97L463.001 113.698C463.38 114.319 463.533 114.966 463.459 115.638C463.384 116.31 463.068 116.933 462.509 117.506C462.072 117.955 461.585 118.258 461.049 118.415C460.507 118.566 459.961 118.565 459.41 118.411C458.853 118.252 458.333 117.937 457.85 117.466ZM460.778 108.681C460.575 108.888 460.341 109 460.075 109.014C459.809 109.018 459.578 108.923 459.381 108.732C459.184 108.54 459.087 108.314 459.089 108.054C459.091 107.782 459.194 107.542 459.396 107.334C459.599 107.126 459.833 107.021 460.099 107.017C460.365 107.003 460.597 107.091 460.793 107.283C460.99 107.474 461.087 107.706 461.085 107.978C461.083 108.239 460.98 108.473 460.778 108.681ZM461.9 108.641L466.568 113.189L465.418 114.369L460.751 109.821L461.9 108.641ZM469.52 110.312C469.147 110.694 468.746 110.971 468.316 111.143C467.88 111.309 467.456 111.367 467.045 111.317C466.64 111.261 466.286 111.102 465.983 110.84L467.14 109.652C467.342 109.805 467.576 109.863 467.841 109.826C468.112 109.784 468.36 109.648 468.585 109.417C468.804 109.193 468.928 108.975 468.959 108.764C468.995 108.547 468.943 108.37 468.802 108.233C468.651 108.085 468.462 108.055 468.235 108.141C468.009 108.216 467.687 108.378 467.268 108.627C466.845 108.893 466.479 109.095 466.17 109.232C465.867 109.364 465.543 109.421 465.199 109.403C464.86 109.379 464.534 109.214 464.219 108.908C463.961 108.656 463.796 108.353 463.725 107.999C463.659 107.64 463.699 107.262 463.843 106.866C463.993 106.465 464.252 106.076 464.619 105.7C465.16 105.144 465.733 104.837 466.337 104.78C466.935 104.716 467.486 104.898 467.991 105.324L466.891 106.453C466.689 106.289 466.467 106.225 466.223 106.262C465.979 106.287 465.745 106.415 465.521 106.645C465.313 106.859 465.191 107.063 465.154 107.257C465.124 107.446 465.178 107.609 465.319 107.746C465.476 107.899 465.673 107.938 465.911 107.863C466.143 107.782 466.462 107.617 466.87 107.368C467.282 107.113 467.64 106.92 467.943 106.789C468.247 106.657 468.571 106.606 468.915 106.635C469.259 106.652 469.588 106.809 469.902 107.104C470.172 107.367 470.34 107.678 470.405 108.038C470.476 108.392 470.437 108.769 470.287 109.171C470.137 109.561 469.881 109.941 469.52 110.312ZM467.537 101.745C467.334 101.953 467.1 102.064 466.834 102.079C466.568 102.082 466.336 101.988 466.14 101.796C465.943 101.605 465.846 101.379 465.848 101.118C465.85 100.846 465.952 100.606 466.155 100.399C466.357 100.191 466.592 100.085 466.858 100.082C467.124 100.067 467.355 100.156 467.552 100.347C467.748 100.539 467.846 100.771 467.844 101.042C467.841 101.303 467.739 101.537 467.537 101.745ZM468.659 101.706L473.326 106.254L472.177 107.433L467.51 102.885L468.659 101.706ZM476.557 103.09C476.12 103.539 475.627 103.848 475.08 104.016C474.528 104.178 473.968 104.185 473.4 104.037C472.838 103.884 472.318 103.574 471.841 103.109C471.364 102.644 471.044 102.13 470.881 101.566C470.724 100.997 470.725 100.434 470.884 99.8773C471.038 99.3152 471.333 98.8095 471.771 98.3602C472.209 97.9109 472.707 97.6022 473.265 97.4342C473.817 97.2606 474.377 97.2479 474.945 97.3958C475.518 97.5382 476.043 97.8419 476.521 98.3072C476.998 98.7724 477.313 99.2924 477.464 99.8672C477.621 100.436 477.62 101.005 477.461 101.573C477.302 102.129 477.001 102.635 476.557 103.09ZM475.53 102.088C475.738 101.875 475.881 101.626 475.961 101.342C476.04 101.047 476.031 100.743 475.932 100.428C475.834 100.113 475.636 99.8104 475.338 99.5203C474.895 99.0879 474.44 98.8747 473.974 98.8808C473.508 98.8757 473.111 99.0416 472.783 99.3786C472.454 99.7156 472.299 100.117 472.316 100.583C472.333 101.037 472.563 101.481 473.007 101.913C473.451 102.345 473.9 102.57 474.355 102.586C474.81 102.591 475.201 102.425 475.53 102.088ZM477.483 92.5158C478.025 91.9598 478.64 91.6829 479.327 91.6851C480.01 91.6818 480.665 91.9867 481.294 92.5997L484.032 95.2679L482.883 96.4473L480.305 93.9351C479.934 93.5739 479.56 93.3902 479.183 93.3839C478.8 93.3722 478.453 93.5265 478.141 93.8466C477.823 94.1724 477.673 94.5292 477.689 94.9172C477.705 95.2941 477.898 95.6632 478.269 96.0244L480.847 98.5367L479.697 99.7161L475.03 95.1679L476.179 93.9884L476.761 94.5549C476.712 94.2006 476.749 93.8479 476.872 93.497C476.995 93.1349 477.199 92.8079 477.483 92.5158ZM486.941 92.4341C486.569 92.816 486.168 93.093 485.738 93.2649C485.302 93.4314 484.878 93.4895 484.467 93.4394C484.062 93.3836 483.707 93.2246 483.405 92.9623L484.562 91.7744C484.764 91.9271 484.997 91.9851 485.263 91.9484C485.534 91.906 485.782 91.7697 486.007 91.5395C486.225 91.3148 486.35 91.0969 486.381 90.8858C486.417 90.669 486.365 90.4922 486.224 90.3554C486.073 90.2076 485.884 90.1768 485.657 90.2629C485.431 90.3379 485.109 90.5001 484.69 90.7496C484.267 91.0157 483.901 91.2173 483.592 91.3544C483.288 91.4858 482.965 91.5427 482.621 91.525C482.282 91.5016 481.956 91.3367 481.641 91.0302C481.383 90.7784 481.218 90.4755 481.147 90.1215C481.081 89.7619 481.121 89.3843 481.265 88.9886C481.415 88.5874 481.674 88.1986 482.04 87.8223C482.582 87.2663 483.155 86.9594 483.759 86.9017C484.357 86.8385 484.908 87.02 485.413 87.446L484.313 88.5749C484.111 88.4112 483.888 88.3475 483.645 88.3839C483.401 88.4092 483.167 88.537 482.943 88.7673C482.735 88.9808 482.613 89.1847 482.576 89.3793C482.545 89.5683 482.6 89.7312 482.741 89.868C482.898 90.0212 483.095 90.0603 483.333 89.9851C483.565 89.9045 483.884 89.7395 484.291 89.4903C484.704 89.2354 485.062 89.0422 485.365 88.9107C485.669 88.7793 485.992 88.7279 486.337 88.7568C486.681 88.7745 487.01 88.9311 487.324 89.2265C487.594 89.4892 487.762 89.8004 487.827 90.16C487.898 90.514 487.859 90.8916 487.709 91.2929C487.558 91.683 487.303 92.0634 486.941 92.4341Z" fill="black"/>
<path d="M56.6392 251.595L521.348 4.50539C525.249 2.43114 530.093 3.91209 532.167 7.8132L558.192 56.7586C560.266 60.6597 558.785 65.5037 554.884 67.5779L90.1755 314.668L56.6392 251.595Z" fill="black"/>
<g clip-path="url(#clip0_101_98)">
<path d="M344.8 136.222L343.358 136.989C342.879 137.244 342.698 137.837 342.952 138.315C343.206 138.793 343.8 138.975 344.278 138.72L344.855 138.414C345.333 138.159 345.927 138.341 346.181 138.819C346.435 139.297 346.253 139.891 345.775 140.145L344.333 140.912M343.339 136.259L343.646 136.836M345.487 140.298L345.794 140.875M348.029 136.726L348.034 136.723M341.104 140.408L341.11 140.405M337.63 139.442L339.962 143.828C340.306 144.474 340.478 144.797 340.735 144.977C340.961 145.136 341.231 145.218 341.507 145.213C341.821 145.208 342.144 145.036 342.79 144.693L350.638 140.52C351.284 140.176 351.607 140.004 351.787 139.747C351.946 139.521 352.028 139.251 352.024 138.975C352.018 138.661 351.846 138.338 351.503 137.692L349.171 133.306C348.827 132.66 348.655 132.337 348.398 132.157C348.172 131.998 347.902 131.916 347.626 131.921C347.312 131.926 346.989 132.098 346.343 132.442L338.495 136.614C337.849 136.958 337.526 137.13 337.346 137.387C337.187 137.613 337.105 137.883 337.109 138.159C337.115 138.473 337.287 138.796 337.63 139.442ZM348.317 136.573C348.402 136.732 348.341 136.93 348.182 137.015C348.023 137.099 347.825 137.039 347.74 136.88C347.655 136.72 347.716 136.522 347.875 136.438C348.035 136.353 348.232 136.413 348.317 136.573ZM341.393 140.254C341.478 140.414 341.417 140.612 341.258 140.696C341.098 140.781 340.901 140.721 340.816 140.561C340.731 140.402 340.792 140.204 340.951 140.119C341.11 140.035 341.308 140.095 341.393 140.254Z" stroke="#55FFE0" stroke-width="1.30704" stroke-linecap="round" stroke-linejoin="round"/>
</g>
<circle cx="344.567" cy="138.567" r="15.3578" transform="rotate(-28 344.567 138.567)" stroke="#FF5555" stroke-width="0.653521"/>
<path d="M366.499 111.605L367.123 112.779L364.1 114.386L365.089 116.245L367.405 115.014L368.018 116.167L365.702 117.398L367.331 120.462L365.877 121.235L362.022 113.985L366.499 111.605ZM368.698 111.475C368.442 111.611 368.185 111.646 367.927 111.579C367.672 111.501 367.481 111.341 367.352 111.098C367.223 110.856 367.199 110.611 367.281 110.363C367.366 110.105 367.536 109.908 367.792 109.772C368.048 109.635 368.304 109.606 368.558 109.684C368.816 109.751 369.01 109.906 369.138 110.148C369.267 110.391 369.289 110.641 369.205 110.899C369.123 111.147 368.954 111.339 368.698 111.475ZM369.779 111.779L372.839 117.534L371.385 118.307L368.325 112.553L369.779 111.779ZM374.36 109.237C375.046 108.873 375.716 108.796 376.37 109.008C377.021 109.213 377.552 109.703 377.965 110.478L379.759 113.854L378.305 114.627L376.615 111.449C376.372 110.992 376.072 110.703 375.715 110.582C375.354 110.454 374.976 110.495 374.581 110.705C374.18 110.919 373.927 111.213 373.824 111.587C373.725 111.951 373.797 112.361 374.039 112.818L375.729 115.997L374.275 116.77L371.216 111.016L372.67 110.242L373.051 110.959C373.112 110.607 373.255 110.282 373.479 109.985C373.706 109.678 374 109.429 374.36 109.237ZM379.227 110.42C378.918 109.838 378.758 109.261 378.747 108.69C378.743 108.114 378.874 107.601 379.14 107.148C379.413 106.693 379.795 106.334 380.287 106.073C380.716 105.844 381.136 105.732 381.547 105.736C381.964 105.736 382.34 105.816 382.673 105.976L382.237 105.155L383.702 104.377L386.761 110.131L385.297 110.909L384.849 110.068C384.806 110.438 384.666 110.801 384.429 111.158C384.196 111.504 383.865 111.791 383.435 112.019C382.951 112.277 382.441 112.388 381.907 112.352C381.38 112.313 380.879 112.131 380.404 111.806C379.933 111.47 379.54 111.008 379.227 110.42ZM383.767 108.032C383.579 107.679 383.35 107.415 383.079 107.239C382.804 107.057 382.514 106.962 382.209 106.956C381.9 106.943 381.61 107.008 381.34 107.151C381.07 107.295 380.856 107.493 380.697 107.746C380.539 107.999 380.455 108.293 380.445 108.626C380.44 108.949 380.529 109.284 380.713 109.63C380.897 109.976 381.128 110.244 381.406 110.433C381.688 110.612 381.98 110.71 382.282 110.727C382.591 110.74 382.877 110.677 383.14 110.537C383.41 110.394 383.628 110.194 383.794 109.937C383.955 109.673 384.039 109.38 384.045 109.057C384.047 108.727 383.955 108.386 383.767 108.032ZM388.266 101.843C388.952 101.479 389.622 101.402 390.276 101.614C390.927 101.819 391.458 102.309 391.871 103.084L393.665 106.46L392.211 107.233L390.521 104.055C390.278 103.598 389.978 103.309 389.621 103.188C389.26 103.06 388.882 103.101 388.487 103.311C388.086 103.525 387.833 103.819 387.731 104.193C387.631 104.557 387.703 104.967 387.946 105.424L389.635 108.603L388.181 109.376L385.122 103.622L386.576 102.848L386.957 103.565C387.018 103.213 387.161 102.888 387.385 102.591C387.613 102.284 387.906 102.035 388.266 101.843ZM393.145 103.046C392.828 102.451 392.673 101.867 392.68 101.295C392.683 100.716 392.834 100.191 393.135 99.7207C393.432 99.2432 393.857 98.8571 394.411 98.5626C395.124 98.1834 395.808 98.0505 396.464 98.1638C397.122 98.2666 397.703 98.5977 398.204 99.1569L396.636 99.9908C396.42 99.7858 396.175 99.6673 395.901 99.6356C395.63 99.5933 395.349 99.6495 395.058 99.8041C394.642 100.025 394.394 100.352 394.314 100.786C394.23 101.212 394.335 101.703 394.63 102.257C394.921 102.804 395.268 103.165 395.673 103.341C396.073 103.51 396.481 103.484 396.897 103.263C397.485 102.95 397.73 102.482 397.63 101.86L399.198 101.026C399.37 101.734 399.319 102.397 399.043 103.014C398.767 103.632 398.276 104.128 397.57 104.504C397.016 104.798 396.46 104.938 395.902 104.924C395.34 104.903 394.82 104.736 394.342 104.421C393.86 104.1 393.461 103.642 393.145 103.046ZM405.049 96.5565C405.16 96.7643 405.245 96.9586 405.306 97.1395L401.099 99.3761C401.355 99.7732 401.673 100.021 402.055 100.121C402.436 100.22 402.814 100.17 403.188 99.9711C403.728 99.6839 403.989 99.2476 403.971 98.6622L405.539 97.8283C405.667 98.4706 405.592 99.097 405.312 99.7074C405.029 100.311 404.545 100.795 403.86 101.159C403.306 101.454 402.743 101.598 402.171 101.591C401.602 101.574 401.073 101.406 400.585 101.089C400.103 100.768 399.706 100.313 399.393 99.7241C399.076 99.1286 398.919 98.5414 398.922 97.9625C398.925 97.3835 399.08 96.8569 399.388 96.3826C399.695 95.9083 400.133 95.5202 400.701 95.2183C401.248 94.9275 401.798 94.7856 402.353 94.7928C402.914 94.7963 403.429 94.9535 403.896 95.2646C404.367 95.565 404.751 95.9957 405.049 96.5565ZM403.322 96.9419C403.117 96.5716 402.823 96.3457 402.442 96.264C402.058 96.1754 401.675 96.2324 401.294 96.4349C400.934 96.6263 400.688 96.8991 400.557 97.2532C400.429 97.5967 400.44 97.9771 400.591 98.3943L403.322 96.9419Z" fill="white"/>
<path d="M374.647 128.575L378.485 135.794L377.301 136.423L374.672 131.479L375.099 137.594L374.279 138.03L369.437 134.263L372.066 139.207L370.882 139.836L367.044 132.618L368.321 131.938L373.866 136.252L373.38 129.249L374.647 128.575ZM382.573 133.74C382.033 134.027 381.481 134.165 380.916 134.155C380.347 134.138 379.82 133.974 379.335 133.663C378.846 133.346 378.446 132.893 378.133 132.304C377.823 131.722 377.677 131.138 377.694 130.552C377.711 129.966 377.877 129.434 378.191 128.956C378.505 128.478 378.936 128.093 379.483 127.802C380.03 127.512 380.589 127.369 381.161 127.376C381.734 127.383 382.267 127.543 382.763 127.857C383.258 128.171 383.661 128.619 383.97 129.2C384.279 129.782 384.422 130.368 384.398 130.958C384.374 131.548 384.2 132.089 383.876 132.581C383.554 133.063 383.12 133.449 382.573 133.74ZM382.027 132.712C382.331 132.55 382.577 132.326 382.762 132.041C382.955 131.752 383.057 131.418 383.069 131.038C383.08 130.659 382.976 130.262 382.755 129.846C382.534 129.431 382.268 129.124 381.958 128.924C381.644 128.718 381.317 128.612 380.977 128.607C380.636 128.601 380.314 128.68 380.009 128.842C379.704 129.004 379.459 129.227 379.273 129.513C379.094 129.794 379.006 130.121 379.008 130.493C379.007 130.858 379.117 131.248 379.338 131.663C379.665 132.28 380.075 132.675 380.567 132.848C381.062 133.011 381.549 132.966 382.027 132.712ZM388.792 130.434C388.342 130.673 387.894 130.809 387.449 130.841C387.008 130.862 386.61 130.79 386.255 130.623C385.896 130.45 385.618 130.194 385.42 129.855L386.645 129.203C386.795 129.435 387.018 129.578 387.314 129.634C387.613 129.679 387.922 129.617 388.241 129.448C388.573 129.271 388.796 129.072 388.91 128.852C389.027 128.621 389.032 128.405 388.925 128.204C388.811 127.99 388.623 127.886 388.36 127.892C388.104 127.895 387.721 127.952 387.211 128.063C386.72 128.174 386.309 128.245 385.98 128.278C385.651 128.311 385.326 128.266 385.003 128.145C384.688 128.019 384.431 127.77 384.232 127.396C384.07 127.091 384.013 126.766 384.06 126.421C384.104 126.069 384.253 125.732 384.509 125.41C384.771 125.084 385.12 124.805 385.556 124.573C386.207 124.227 386.818 124.116 387.389 124.238C387.964 124.35 388.416 124.682 388.746 125.235L387.562 125.865C387.405 125.62 387.192 125.471 386.924 125.418C386.656 125.365 386.363 125.423 386.044 125.593C385.733 125.758 385.525 125.944 385.422 126.15C385.318 126.356 385.318 126.556 385.421 126.75C385.502 126.902 385.625 127.001 385.791 127.046C385.957 127.091 386.137 127.102 386.329 127.08C386.518 127.051 386.792 126.998 387.151 126.923C387.626 126.812 388.026 126.746 388.351 126.724C388.68 126.691 389.001 126.734 389.312 126.853C389.624 126.971 389.881 127.212 390.083 127.575C390.256 127.901 390.321 128.239 390.277 128.591C390.233 128.943 390.084 129.28 389.829 129.602C389.58 129.921 389.235 130.198 388.792 130.434ZM391.065 123.003L392.749 126.171C392.863 126.386 392.995 126.516 393.143 126.561C393.295 126.596 393.492 126.549 393.734 126.42L394.461 126.033L394.986 127.02L394.051 127.517C393.518 127.801 393.043 127.893 392.627 127.795C392.21 127.697 391.853 127.367 391.555 126.806L389.871 123.638L389.195 123.997L388.682 123.031L389.357 122.672L388.6 121.249L389.795 120.614L390.551 122.037L391.943 121.297L392.457 122.263L391.065 123.003ZM401.128 117.253C401.323 117.62 401.421 118.012 401.421 118.429C401.421 118.847 401.286 119.261 401.015 119.671C400.741 120.074 400.306 120.434 399.711 120.751L398.402 121.447L399.96 124.376L398.775 125.005L394.937 117.787L397.43 116.461C397.984 116.167 398.503 116.015 398.987 116.006C399.474 115.987 399.898 116.091 400.258 116.317C400.624 116.539 400.915 116.851 401.128 117.253ZM399.197 119.785C399.647 119.546 399.93 119.267 400.045 118.948C400.156 118.622 400.112 118.273 399.913 117.899C399.493 117.109 398.837 116.952 397.944 117.427L396.635 118.123L397.889 120.481L399.197 119.785ZM407.485 120.494C406.945 120.782 406.392 120.92 405.827 120.91C405.258 120.892 404.731 120.728 404.246 120.418C403.758 120.1 403.357 119.647 403.044 119.058C402.735 118.477 402.589 117.893 402.605 117.307C402.622 116.72 402.788 116.188 403.102 115.71C403.417 115.232 403.847 114.848 404.394 114.557C404.941 114.266 405.501 114.124 406.073 114.131C406.645 114.137 407.179 114.298 407.674 114.612C408.17 114.925 408.572 115.373 408.881 115.955C409.19 116.536 409.333 117.122 409.309 117.712C409.286 118.302 409.111 118.843 408.787 119.336C408.466 119.817 408.032 120.204 407.485 120.494ZM406.938 119.466C407.243 119.304 407.488 119.08 407.674 118.795C407.866 118.506 407.968 118.172 407.98 117.793C407.992 117.414 407.887 117.016 407.666 116.601C407.445 116.185 407.18 115.878 406.869 115.679C406.555 115.473 406.228 115.367 405.888 115.361C405.547 115.356 405.225 115.434 404.92 115.596C404.615 115.758 404.37 115.982 404.184 116.267C404.006 116.549 403.917 116.875 403.92 117.247C403.918 117.612 404.028 118.002 404.249 118.418C404.577 119.034 404.986 119.429 405.478 119.603C405.974 119.766 406.46 119.72 406.938 119.466ZM410.164 112.688C410.225 112.318 410.381 111.951 410.631 111.587C410.882 111.223 411.225 110.925 411.662 110.693C412.16 110.428 412.68 110.311 413.221 110.343C413.765 110.365 414.273 110.534 414.744 110.852C415.215 111.17 415.603 111.617 415.909 112.191C416.215 112.766 416.371 113.345 416.379 113.927C416.383 114.502 416.245 115.028 415.966 115.505C415.69 115.972 415.302 116.338 414.804 116.603C414.368 116.835 413.934 116.954 413.503 116.962C413.068 116.962 412.673 116.888 412.318 116.739L414.207 120.291L413.023 120.92L408.533 112.476L409.717 111.847L410.164 112.688ZM414.704 112.832C414.494 112.437 414.231 112.142 413.914 111.947C413.6 111.741 413.269 111.637 412.922 111.635C412.578 111.622 412.253 111.697 411.949 111.859C411.651 112.017 411.407 112.245 411.218 112.54C411.036 112.833 410.939 113.168 410.928 113.548C410.923 113.923 411.026 114.308 411.236 114.703C411.446 115.098 411.709 115.401 412.027 115.614C412.348 115.817 412.68 115.924 413.024 115.937C413.375 115.946 413.7 115.871 413.997 115.712C414.302 115.55 414.546 115.323 414.728 115.031C414.913 114.728 415.006 114.386 415.007 114.003C415.015 113.617 414.914 113.227 414.704 112.832ZM420.755 105.978L423.798 111.7L422.614 112.33L422.255 111.655C422.193 111.99 422.047 112.307 421.816 112.608C421.588 112.898 421.304 113.133 420.965 113.313C420.515 113.553 420.06 113.675 419.601 113.679C419.148 113.68 418.721 113.552 418.318 113.295C417.922 113.035 417.586 112.645 417.31 112.126L415.52 108.761L416.694 108.137L418.389 111.325C418.662 111.838 419 112.164 419.403 112.305C419.803 112.439 420.225 112.388 420.668 112.153C421.111 111.917 421.389 111.596 421.501 111.19C421.617 110.773 421.539 110.308 421.266 109.796L419.571 106.607L420.755 105.978ZM422.458 102.554L426.544 110.24L425.36 110.87L421.274 103.184L422.458 102.554ZM426.169 106.736C425.863 106.161 425.71 105.59 425.71 105.021C425.717 104.449 425.86 103.934 426.14 103.474C426.423 103.004 426.814 102.636 427.312 102.371C427.762 102.132 428.201 102.014 428.629 102.017C429.061 102.01 429.447 102.084 429.787 102.241L429.346 101.41L430.54 100.775L433.583 106.498L432.389 107.133L431.936 106.281C431.878 106.658 431.725 107.028 431.474 107.393C431.224 107.757 430.877 108.057 430.434 108.292C429.942 108.554 429.426 108.668 428.885 108.636C428.34 108.597 427.827 108.417 427.345 108.096C426.867 107.764 426.475 107.311 426.169 106.736ZM430.864 104.266C430.654 103.871 430.389 103.573 430.068 103.37C429.754 103.164 429.425 103.055 429.081 103.043C428.737 103.03 428.413 103.105 428.108 103.267C427.803 103.429 427.56 103.656 427.378 103.948C427.192 104.234 427.093 104.566 427.082 104.945C427.074 105.314 427.174 105.695 427.384 106.09C427.594 106.485 427.858 106.788 428.175 107.002C428.5 107.211 428.836 107.325 429.184 107.345C429.535 107.353 429.859 107.279 430.157 107.12C430.462 106.958 430.705 106.731 430.887 106.439C431.069 106.147 431.163 105.813 431.167 105.437C431.175 105.051 431.074 104.661 430.864 104.266ZM433.721 100.149C433.74 99.7663 433.848 99.4198 434.048 99.1096C434.25 98.7888 434.549 98.5234 434.943 98.3136L435.595 99.5392L435.294 99.6993C434.83 99.946 434.539 100.252 434.422 100.616C434.312 100.976 434.411 101.448 434.721 102.029L436.322 105.041L435.138 105.671L432.095 99.9479L433.279 99.3183L433.721 100.149ZM442.232 92.6394L442.746 93.6053L439.682 95.2345L440.814 97.3637L443.203 96.0935L443.717 97.0595L441.328 98.3297L443.006 101.487L441.822 102.117L437.984 94.8981L442.232 92.6394ZM444.324 92.4731C444.109 92.5872 443.891 92.6102 443.668 92.5421C443.445 92.4741 443.277 92.3327 443.163 92.118C443.049 91.9034 443.026 91.6847 443.094 91.462C443.162 91.2392 443.303 91.0708 443.518 90.9567C443.726 90.8462 443.941 90.825 444.164 90.8931C444.386 90.9612 444.555 91.1026 444.669 91.3172C444.783 91.5319 444.806 91.7506 444.738 91.9733C444.67 92.196 444.532 92.3626 444.324 92.4731ZM445.309 92.922L448.352 98.645L447.168 99.2745L444.125 93.5516L445.309 92.922ZM449.701 90.4667C450.151 90.2274 450.603 90.1073 451.055 90.1065C451.515 90.102 451.942 90.2299 452.338 90.4901C452.734 90.7503 453.07 91.1401 453.346 91.6594L455.141 95.035L453.968 95.6591L452.267 92.46C451.994 91.9476 451.658 91.6245 451.258 91.4907C450.855 91.35 450.431 91.3974 449.988 91.633C449.545 91.8687 449.266 92.1949 449.15 92.6118C449.037 93.0181 449.117 93.4774 449.39 93.9898L451.09 97.1888L449.906 97.8184L446.863 92.0955L448.048 91.4659L448.395 92.1202C448.464 91.7817 448.612 91.4675 448.84 91.1776C449.075 90.8841 449.362 90.6471 449.701 90.4667ZM454.722 91.5544C454.416 90.9797 454.263 90.4081 454.263 89.8398C454.27 89.2678 454.413 88.752 454.692 88.2924C454.975 87.8222 455.366 87.4546 455.865 87.1895C456.315 86.9502 456.754 86.8322 457.182 86.8355C457.613 86.8282 457.999 86.9028 458.34 87.0591L457.898 86.2282L459.093 85.5931L462.136 91.316L460.941 91.9511L460.488 91.0994C460.431 91.4763 460.277 91.8467 460.027 92.2108C459.776 92.575 459.429 92.8748 458.986 93.1105C458.495 93.3719 457.978 93.4865 457.437 93.4545C456.892 93.4155 456.379 93.2354 455.898 92.9142C455.419 92.5824 455.027 92.1291 454.722 91.5544ZM459.417 89.0845C459.207 88.6898 458.942 88.3912 458.621 88.1888C458.307 87.9826 457.978 87.8733 457.634 87.8609C457.29 87.8485 456.965 87.9233 456.661 88.0852C456.356 88.2472 456.113 88.4744 455.93 88.7666C455.745 89.0519 455.646 89.3842 455.634 89.7633C455.626 90.1319 455.727 90.5136 455.937 90.9082C456.147 91.3029 456.41 91.6068 456.728 91.8199C457.052 92.0292 457.389 92.1436 457.736 92.163C458.087 92.1717 458.412 92.0969 458.71 91.9386C459.014 91.7766 459.258 91.5495 459.44 91.2573C459.622 90.965 459.715 90.6312 459.72 90.2557C459.728 89.8696 459.627 89.4792 459.417 89.0845ZM463.486 83.1374C463.936 82.8981 464.387 82.7781 464.84 82.7772C465.299 82.7728 465.727 82.9006 466.123 83.1608C466.519 83.421 466.855 83.8108 467.131 84.3301L468.926 87.7057L467.752 88.3298L466.051 85.1308C465.778 84.6184 465.442 84.2953 465.043 84.1614C464.639 84.0207 464.216 84.0681 463.773 84.3038C463.329 84.5394 463.05 84.8656 462.934 85.2825C462.822 85.6888 462.901 86.1481 463.174 86.6605L464.875 89.8595L463.691 90.4891L460.648 84.7662L461.832 84.1366L462.18 84.791C462.249 84.4524 462.397 84.1382 462.625 83.8484C462.859 83.5548 463.146 83.3178 463.486 83.1374ZM468.517 84.2459C468.204 83.6573 468.047 83.0789 468.047 82.5105C468.05 81.9316 468.199 81.4086 468.492 80.9417C468.786 80.4748 469.206 80.0959 469.753 79.805C470.445 79.4369 471.105 79.2993 471.732 79.3924C472.362 79.4748 472.918 79.7784 473.402 80.303L472.124 80.9823C471.869 80.7536 471.585 80.6204 471.272 80.5826C470.959 80.5449 470.629 80.618 470.283 80.8021C469.798 81.0598 469.503 81.4391 469.396 81.94C469.292 82.4302 469.405 82.9835 469.732 83.5997C470.06 84.216 470.458 84.6218 470.926 84.817C471.401 85.0086 471.88 84.9755 472.365 84.7178C473.051 84.3533 473.344 83.811 473.245 83.0907L474.523 82.4115C474.666 83.0815 474.601 83.7111 474.328 84.3003C474.051 84.8826 473.574 85.3541 472.895 85.7149C472.348 86.0058 471.799 86.1423 471.248 86.1246C470.693 86.0999 470.176 85.9304 469.698 85.6161C469.224 85.2912 468.83 84.8344 468.517 84.2459ZM480.313 77.8007C480.427 78.0154 480.516 78.2166 480.581 78.4044L476.208 80.7294C476.485 81.168 476.85 81.4448 477.302 81.5598C477.754 81.6748 478.202 81.6144 478.645 81.3788C479.282 81.0401 479.59 80.5342 479.57 79.8611L480.847 79.1818C480.954 79.8001 480.869 80.4004 480.593 80.9827C480.319 81.5544 479.847 82.0188 479.175 82.3759C478.628 82.6668 478.072 82.807 477.507 82.7966C476.945 82.7756 476.422 82.6098 475.937 82.2992C475.455 81.9779 475.058 81.5231 474.745 80.9345C474.432 80.3459 474.275 79.7675 474.275 79.1991C474.278 78.6202 474.43 78.0954 474.73 77.6248C475.038 77.1505 475.472 76.7642 476.033 76.466C476.573 76.1789 477.117 76.0407 477.664 76.0515C478.212 76.0624 478.717 76.2199 479.181 76.524C479.641 76.8212 480.018 77.2468 480.313 77.8007ZM478.878 78.084C478.639 77.6514 478.297 77.3846 477.853 77.2835C477.408 77.1823 476.961 77.2514 476.511 77.4907C476.102 77.708 475.823 78.0254 475.672 78.4432C475.517 78.854 475.53 79.2958 475.71 79.7684L478.878 78.084ZM486.597 69.05L487.111 70.016L485.19 71.0376L488.514 77.2903L487.33 77.9199L484.006 71.6672L482.074 72.6944L481.56 71.7285L486.597 69.05ZM490.218 70.1094C490.236 69.7266 490.345 69.38 490.544 69.0698C490.747 68.749 491.045 68.4837 491.44 68.2738L492.092 69.4994L491.79 69.6596C491.326 69.9062 491.036 70.2117 490.919 70.576C490.809 70.9366 490.908 71.4077 491.217 71.9894L492.819 75.0014L491.635 75.631L488.592 69.9081L489.776 69.2785L490.218 70.1094ZM493.691 70.8339C493.385 70.2592 493.233 69.6877 493.232 69.1194C493.239 68.5473 493.382 68.0316 493.662 67.572C493.945 67.1018 494.336 66.7342 494.834 66.4691C495.284 66.2298 495.723 66.1118 496.151 66.1151C496.583 66.1078 496.969 66.1823 497.309 66.3387L496.868 65.5078L498.062 64.8727L501.105 70.5956L499.911 71.2307L499.458 70.379C499.401 70.7558 499.247 71.1263 498.996 71.4904C498.746 71.8545 498.399 72.1544 497.956 72.39C497.464 72.6514 496.948 72.7661 496.407 72.734C495.862 72.6951 495.349 72.515 494.867 72.1937C494.389 71.8619 493.997 71.4087 493.691 70.8339ZM498.386 68.364C498.177 67.9693 497.911 67.6708 497.59 67.4683C497.276 67.2622 496.947 67.1529 496.603 67.1405C496.259 67.128 495.935 67.2028 495.63 67.3648C495.325 67.5268 495.082 67.7539 494.9 68.0462C494.714 68.3315 494.615 68.6637 494.604 69.0429C494.596 69.4115 494.696 69.7931 494.906 70.1878C495.116 70.5825 495.38 70.8864 495.697 71.0994C496.022 71.3088 496.358 71.4232 496.706 71.4425C497.057 71.4513 497.381 71.3765 497.679 71.2182C497.984 71.0562 498.227 70.8291 498.409 70.5368C498.591 70.2446 498.685 69.9107 498.689 69.5352C498.697 69.1491 498.596 68.7587 498.386 68.364ZM500.741 67.1119C500.428 66.5233 500.272 65.9449 500.272 65.3765C500.275 64.7976 500.423 64.2746 500.716 63.8077C501.01 63.3408 501.43 62.9619 501.977 62.671C502.67 62.3029 503.329 62.1653 503.956 62.2584C504.586 62.3408 505.143 62.6444 505.626 63.169L504.349 63.8483C504.094 63.6196 503.81 63.4864 503.497 63.4486C503.183 63.4109 502.854 63.484 502.507 63.6681C502.023 63.9258 501.727 64.3051 501.62 64.806C501.517 65.2962 501.629 65.8495 501.957 66.4657C502.284 67.082 502.682 67.4878 503.15 67.683C503.625 67.8746 504.105 67.8415 504.589 67.5838C505.275 67.2193 505.568 66.677 505.47 65.9567L506.747 65.2775C506.89 65.9475 506.825 66.5771 506.552 67.1663C506.276 67.7486 505.798 68.2201 505.12 68.5809C504.573 68.8718 504.023 69.0083 503.472 68.9906C502.917 68.9659 502.401 68.7964 501.923 68.4821C501.448 68.1572 501.054 67.7004 500.741 67.1119ZM509.634 62.3971L513.79 63.8506L512.191 64.7011L508.763 63.3661L510.072 65.8277L508.888 66.4573L504.801 58.7713L505.985 58.1417L508.36 62.6079L509.106 59.0003L510.748 58.1277L509.634 62.3971ZM518.288 57.6088C518.402 57.8234 518.492 58.0247 518.556 58.2125L514.183 60.5375C514.461 60.9761 514.826 61.2529 515.278 61.3679C515.73 61.4829 516.177 61.4225 516.62 61.1869C517.257 60.8482 517.566 60.3423 517.545 59.6692L518.823 58.9899C518.93 59.6082 518.845 60.2085 518.568 60.7908C518.295 61.3625 517.822 61.8269 517.15 62.184C516.603 62.4749 516.047 62.6151 515.482 62.6047C514.92 62.5837 514.397 62.4179 513.912 62.1073C513.43 61.786 513.033 61.3311 512.72 60.7426C512.407 60.154 512.251 59.5756 512.251 59.0072C512.254 58.4283 512.405 57.9035 512.706 57.4329C513.013 56.9586 513.447 56.5723 514.008 56.2741C514.548 55.9869 515.092 55.8488 515.64 55.8596C516.187 55.8705 516.693 56.0279 517.156 56.3321C517.616 56.6293 517.994 57.0548 518.288 57.6088ZM516.853 57.8921C516.615 57.4595 516.273 57.1927 515.828 57.0915C515.384 56.9904 514.936 57.0595 514.486 57.2988C514.078 57.516 513.798 57.8335 513.647 58.2513C513.493 58.6621 513.505 59.1038 513.686 59.5765L516.853 57.8921ZM519.632 54.4693C519.651 54.0865 519.76 53.7399 519.959 53.4297C520.161 53.1089 520.46 52.8436 520.855 52.6337L521.506 53.8593L521.205 54.0195C520.741 54.2661 520.451 54.5716 520.334 54.9359C520.223 55.2965 520.323 55.7676 520.632 56.3493L522.234 59.3613L521.05 59.9909L518.007 54.268L519.191 53.6384L519.632 54.4693ZM531.302 52.648L528.279 54.2551L528.544 56.0061L527.308 56.6633L526.05 48.0592L527.421 47.3302L533.851 53.184L532.605 53.8467L531.302 52.648ZM530.456 51.8588L527.498 49.128L528.098 53.1124L530.456 51.8588ZM533.564 47.0749C533.625 46.705 533.781 46.338 534.031 45.9739C534.282 45.6098 534.625 45.3118 535.062 45.0798C535.56 44.8147 536.08 44.6982 536.621 44.7303C537.165 44.7517 537.673 44.9214 538.144 45.2394C538.615 45.5574 539.003 46.0037 539.309 46.5784C539.615 47.1532 539.771 47.7316 539.779 48.3138C539.783 48.8891 539.645 49.4152 539.366 49.8923C539.09 50.3588 538.702 50.7246 538.204 50.9897C537.768 51.2217 537.334 51.3413 536.903 51.3486C536.468 51.3489 536.073 51.2746 535.718 51.1256L537.607 54.6778L536.423 55.3074L531.933 46.8632L533.117 46.2336L533.564 47.0749ZM538.104 47.2191C537.894 46.8244 537.631 46.5293 537.314 46.3337C537 46.1276 536.669 46.0236 536.322 46.0218C535.978 46.0094 535.653 46.0841 535.349 46.2461C535.051 46.4045 534.807 46.6316 534.618 46.9275C534.436 47.2197 534.339 47.5554 534.328 47.9346C534.323 48.3101 534.426 48.6952 534.636 49.0899C534.846 49.4846 535.109 49.7885 535.427 50.0015C535.748 50.204 536.08 50.3114 536.424 50.3239C536.775 50.3326 537.1 50.2578 537.397 50.0995C537.702 49.9375 537.946 49.7104 538.128 49.4182C538.313 49.1153 538.406 48.7727 538.407 48.3903C538.415 48.0041 538.314 47.6138 538.104 47.2191ZM540.604 43.3321C540.665 42.9622 540.82 42.5952 541.071 42.2311C541.321 41.867 541.665 41.5689 542.101 41.337C542.599 41.0719 543.119 40.9554 543.66 40.9874C544.205 41.0089 544.712 41.1786 545.183 41.4966C545.654 41.8145 546.043 42.2609 546.348 42.8356C546.654 43.4103 546.81 43.9888 546.818 44.571C546.822 45.1462 546.684 45.6724 546.405 46.1495C546.129 46.616 545.742 46.9818 545.243 47.2469C544.807 47.4788 544.373 47.5984 543.942 47.6057C543.507 47.6061 543.112 47.5318 542.757 47.3828L544.646 50.935L543.462 51.5645L538.972 43.1204L540.156 42.4908L540.604 43.3321ZM545.143 43.4762C544.934 43.0815 544.67 42.7864 544.353 42.5909C544.039 42.3848 543.708 42.2808 543.361 42.2789C543.017 42.2665 542.693 42.3413 542.388 42.5033C542.09 42.6616 541.847 42.8887 541.658 43.1846C541.476 43.4769 541.379 43.8126 541.367 44.1918C541.363 44.5673 541.465 44.9524 541.675 45.3471C541.885 45.7417 542.149 46.0456 542.466 46.2587C542.787 46.4611 543.119 46.5686 543.464 46.581C543.815 46.5898 544.139 46.515 544.437 46.3567C544.741 46.1947 544.985 45.9676 545.167 45.6753C545.352 45.3725 545.445 45.0298 545.446 44.6474C545.454 44.2613 545.353 43.8709 545.143 43.4762Z" fill="white"/>
<g clip-path="url(#clip1_101_98)">
<path d="M110.061 265.476C108.149 266.493 105.775 265.767 104.758 263.855L103.053 260.649C102.926 260.41 102.863 260.291 102.847 260.177C102.82 259.986 102.879 259.792 103.008 259.649C103.086 259.563 103.205 259.5 103.444 259.373L108.701 256.577C108.94 256.45 109.059 256.387 109.173 256.371C109.365 256.344 109.558 256.403 109.702 256.532C109.787 256.609 109.851 256.729 109.978 256.967L111.682 260.173C112.699 262.085 111.973 264.46 110.061 265.476ZM110.061 265.476L110.981 267.207M110.148 257.288L111.591 256.521C111.86 256.378 111.994 256.307 112.123 256.294C112.296 256.278 112.468 256.33 112.602 256.44C112.702 256.523 112.774 256.658 112.916 256.926L113.07 257.215C113.355 257.751 113.498 258.02 113.556 258.271C113.714 258.954 113.495 259.668 112.983 260.146C112.794 260.322 112.526 260.465 111.989 260.75M103.224 260.97L101.781 261.737C101.512 261.88 101.378 261.951 101.295 262.052C101.185 262.185 101.132 262.357 101.149 262.53C101.162 262.659 101.233 262.794 101.376 263.063L101.529 263.351C101.815 263.888 101.957 264.156 102.133 264.345C102.611 264.857 103.326 265.076 104.008 264.918C104.26 264.86 104.528 264.717 105.065 264.432M109.58 270.913L114.837 268.118C114.979 268.042 115.033 267.867 114.957 267.725C114.355 266.592 112.948 266.162 111.815 266.764L110.148 267.65C109.015 268.253 108.585 269.66 109.187 270.793C109.262 270.935 109.438 270.988 109.58 270.913Z" stroke="#55FFE0" stroke-width="1.30704" stroke-linecap="round" stroke-linejoin="round"/>
</g>
<circle cx="109.141" cy="263.745" r="15.3578" transform="rotate(-28 109.141 263.745)" stroke="#FF55B1" stroke-width="0.653521"/>
<path d="M134.162 242.668L131.274 244.204L131.531 245.839L130.004 246.651L128.751 238.004L130.444 237.104L136.911 242.978L135.374 243.796L134.162 242.668ZM133.148 241.715L130.487 239.24L131.05 242.83L133.148 241.715ZM135.982 239.782C135.665 239.186 135.51 238.603 135.517 238.031C135.52 237.452 135.672 236.927 135.972 236.456C136.269 235.979 136.694 235.593 137.248 235.298C137.961 234.919 138.646 234.786 139.301 234.899C139.96 235.002 140.54 235.333 141.042 235.893L139.473 236.726C139.258 236.521 139.012 236.403 138.738 236.371C138.467 236.329 138.186 236.385 137.895 236.54C137.48 236.761 137.232 237.088 137.151 237.521C137.067 237.948 137.173 238.438 137.467 238.992C137.758 239.539 138.106 239.901 138.51 240.076C138.911 240.245 139.319 240.219 139.734 239.998C140.323 239.685 140.567 239.218 140.467 238.596L142.036 237.762C142.208 238.47 142.156 239.133 141.88 239.75C141.604 240.367 141.113 240.864 140.407 241.239C139.853 241.534 139.297 241.674 138.739 241.66C138.177 241.639 137.657 241.471 137.179 241.157C136.698 240.836 136.298 240.377 135.982 239.782ZM144.27 231.578C144.707 231.346 145.146 231.237 145.588 231.25C146.027 231.257 146.439 231.397 146.825 231.672C147.214 231.936 147.547 232.327 147.823 232.846L149.618 236.222L148.164 236.995L146.474 233.817C146.231 233.36 145.93 233.071 145.573 232.95C145.212 232.822 144.834 232.863 144.439 233.073C144.038 233.287 143.786 233.581 143.683 233.955C143.583 234.319 143.655 234.73 143.898 235.187L145.588 238.365L144.134 239.138L140.047 231.452L141.501 230.679L142.909 233.327C142.964 232.979 143.11 232.652 143.348 232.348C143.582 232.037 143.89 231.78 144.27 231.578ZM148.314 228.655C148.058 228.791 147.801 228.826 147.543 228.759C147.288 228.681 147.097 228.521 146.968 228.278C146.839 228.036 146.815 227.791 146.897 227.543C146.981 227.285 147.152 227.088 147.408 226.952C147.664 226.815 147.92 226.786 148.174 226.864C148.432 226.931 148.625 227.086 148.754 227.328C148.883 227.571 148.905 227.821 148.82 228.079C148.739 228.327 148.57 228.519 148.314 228.655ZM149.395 228.96L152.454 234.714L151 235.487L147.941 229.733L149.395 228.96ZM157.644 228.104C157.755 228.312 157.84 228.506 157.901 228.687L153.694 230.924C153.95 231.321 154.268 231.569 154.65 231.668C155.031 231.767 155.409 231.717 155.783 231.519C156.323 231.231 156.584 230.795 156.565 230.21L158.134 229.376C158.262 230.018 158.187 230.644 157.907 231.255C157.624 231.858 157.14 232.342 156.454 232.707C155.9 233.001 155.337 233.145 154.765 233.138C154.197 233.121 153.668 232.954 153.179 232.636C152.698 232.315 152.3 231.86 151.987 231.272C151.671 230.676 151.514 230.089 151.517 229.51C151.52 228.931 151.675 228.404 151.983 227.93C152.29 227.456 152.728 227.068 153.295 226.766C153.842 226.475 154.393 226.333 154.948 226.34C155.509 226.344 156.024 226.501 156.491 226.812C156.962 227.112 157.346 227.543 157.644 228.104ZM155.917 228.489C155.711 228.119 155.418 227.893 155.037 227.811C154.653 227.723 154.27 227.78 153.889 227.982C153.529 228.174 153.283 228.446 153.152 228.801C153.024 229.144 153.035 229.524 153.186 229.942L155.917 228.489ZM161.988 227.926L161.095 222.738L162.643 221.915L163.573 228.802L161.808 229.741L156.629 225.113L158.187 224.285L161.988 227.926ZM170.272 221.389C170.383 221.597 170.468 221.792 170.529 221.972L166.322 224.209C166.578 224.606 166.896 224.854 167.278 224.953C167.659 225.053 168.037 225.003 168.411 224.804C168.951 224.517 169.212 224.081 169.194 223.495L170.762 222.661C170.89 223.304 170.815 223.93 170.535 224.54C170.252 225.144 169.768 225.628 169.082 225.992C168.528 226.287 167.966 226.431 167.393 226.424C166.825 226.407 166.296 226.239 165.807 225.922C165.326 225.601 164.928 225.146 164.616 224.557C164.299 223.962 164.142 223.374 164.145 222.795C164.148 222.216 164.303 221.69 164.611 221.216C164.918 220.741 165.356 220.353 165.924 220.051C166.471 219.76 167.021 219.619 167.576 219.626C168.137 219.629 168.652 219.786 169.119 220.098C169.59 220.398 169.974 220.829 170.272 221.389ZM168.545 221.775C168.34 221.405 168.046 221.179 167.665 221.097C167.281 221.008 166.898 221.065 166.517 221.268C166.157 221.459 165.911 221.732 165.78 222.086C165.652 222.43 165.663 222.81 165.814 223.227L168.545 221.775ZM176.972 214.19C177.678 213.815 178.362 213.731 179.023 213.939C179.688 214.136 180.226 214.623 180.638 215.398L182.433 218.774L180.979 219.547L179.289 216.369C179.05 215.919 178.753 215.636 178.4 215.523C178.042 215.402 177.666 215.446 177.272 215.656C176.877 215.866 176.626 216.155 176.52 216.522C176.416 216.879 176.484 217.283 176.724 217.733L178.414 220.911L176.96 221.684L175.27 218.506C175.03 218.056 174.734 217.774 174.38 217.66C174.023 217.539 173.647 217.583 173.252 217.793C172.85 218.007 172.596 218.297 172.49 218.665C172.386 219.022 172.454 219.425 172.694 219.875L174.384 223.054L172.93 223.827L169.87 218.073L171.324 217.3L171.694 217.995C171.752 217.654 171.89 217.336 172.107 217.043C172.331 216.746 172.62 216.504 172.973 216.316C173.423 216.077 173.876 215.96 174.332 215.967C174.785 215.966 175.202 216.09 175.584 216.34C175.594 215.909 175.722 215.498 175.969 215.11C176.222 214.718 176.556 214.411 176.972 214.19ZM187.566 212.194C187.677 212.402 187.762 212.596 187.823 212.777L183.616 215.014C183.872 215.411 184.19 215.659 184.572 215.758C184.953 215.857 185.331 215.808 185.704 215.609C186.245 215.322 186.506 214.885 186.487 214.3L188.056 213.466C188.184 214.108 188.109 214.735 187.829 215.345C187.546 215.949 187.062 216.433 186.376 216.797C185.822 217.092 185.259 217.235 184.687 217.229C184.119 217.211 183.59 217.044 183.101 216.726C182.62 216.405 182.222 215.95 181.909 215.362C181.593 214.766 181.436 214.179 181.439 213.6C181.442 213.021 181.597 212.495 181.905 212.02C182.212 211.546 182.65 211.158 183.217 210.856C183.764 210.565 184.315 210.423 184.87 210.43C185.431 210.434 185.945 210.591 186.413 210.902C186.883 211.203 187.268 211.633 187.566 212.194ZM185.839 212.579C185.633 212.209 185.34 211.983 184.959 211.902C184.574 211.813 184.192 211.87 183.811 212.072C183.451 212.264 183.205 212.537 183.074 212.891C182.945 213.234 182.957 213.615 183.107 214.032L185.839 212.579ZM190.308 207.099C190.994 206.734 191.664 206.658 192.318 206.87C192.969 207.074 193.5 207.564 193.913 208.34L195.707 211.716L194.253 212.489L192.563 209.311C192.32 208.854 192.02 208.565 191.663 208.444C191.302 208.316 190.924 208.357 190.529 208.567C190.128 208.78 189.875 209.074 189.773 209.449C189.673 209.813 189.745 210.223 189.988 210.68L191.678 213.858L190.223 214.632L187.164 208.877L188.618 208.104L188.999 208.821C189.06 208.469 189.203 208.144 189.427 207.847C189.655 207.54 189.948 207.29 190.308 207.099ZM196.359 205.521L197.839 208.304C197.942 208.498 198.062 208.616 198.2 208.658C198.341 208.69 198.523 208.647 198.744 208.529L199.42 208.17L200.071 209.395L199.157 209.881C197.932 210.533 197.002 210.263 196.369 209.072L194.894 206.299L194.209 206.664L193.574 205.469L194.259 205.105L193.503 203.682L194.967 202.903L195.724 204.326L197.012 203.641L197.647 204.836L196.359 205.521ZM203.369 207.762C202.898 208.012 202.431 208.154 201.969 208.186C201.503 208.212 201.082 208.139 200.706 207.966C200.336 207.789 200.048 207.529 199.839 207.187L201.303 206.409C201.449 206.616 201.654 206.742 201.918 206.788C202.189 206.83 202.467 206.776 202.751 206.625C203.028 206.478 203.213 206.308 203.306 206.116C203.407 205.921 203.411 205.737 203.319 205.564C203.219 205.377 203.049 205.29 202.807 205.303C202.569 205.305 202.212 205.361 201.738 205.472C201.253 205.596 200.843 205.676 200.507 205.713C200.178 205.746 199.853 205.701 199.53 205.58C199.215 205.454 198.954 205.198 198.748 204.81C198.579 204.491 198.514 204.153 198.554 203.794C198.601 203.431 198.754 203.084 199.012 202.751C199.277 202.414 199.642 202.123 200.106 201.876C200.791 201.512 201.43 201.394 202.023 201.523C202.612 201.645 203.082 201.986 203.433 202.545L202.041 203.285C201.899 203.068 201.706 202.939 201.463 202.9C201.223 202.85 200.961 202.9 200.677 203.051C200.414 203.191 200.236 203.348 200.142 203.522C200.055 203.693 200.057 203.865 200.15 204.038C200.253 204.232 200.429 204.329 200.678 204.33C200.923 204.324 201.278 204.264 201.742 204.151C202.212 204.034 202.612 203.959 202.941 203.926C203.27 203.893 203.594 203.943 203.913 204.075C204.235 204.197 204.501 204.446 204.711 204.824C204.887 205.156 204.952 205.503 204.905 205.866C204.865 206.225 204.712 206.572 204.447 206.909C204.185 207.235 203.826 207.519 203.369 207.762Z" fill="white"/>
<path d="M140.996 256.775C141.42 256.638 141.858 256.667 142.308 256.863C142.759 257.059 143.098 257.371 143.327 257.8C143.522 258.167 143.601 258.551 143.566 258.952C143.534 259.342 143.383 259.72 143.115 260.084C142.844 260.442 142.469 260.748 141.991 261.002L139.104 262.537L135.266 255.319L138.018 253.855C138.51 253.594 138.976 253.452 139.418 253.431C139.859 253.409 140.245 253.492 140.576 253.68C140.904 253.862 141.159 254.125 141.343 254.472C141.564 254.887 141.638 255.292 141.563 255.687C141.489 256.082 141.3 256.444 140.996 256.775ZM138.062 257.722L139.527 256.943C139.914 256.737 140.17 256.49 140.292 256.203C140.418 255.905 140.393 255.59 140.216 255.258C140.043 254.932 139.798 254.738 139.48 254.676C139.166 254.603 138.815 254.67 138.428 254.876L136.963 255.655L138.062 257.722ZM141.374 260.091C141.775 259.878 142.039 259.613 142.164 259.298C142.29 258.982 142.26 258.652 142.076 258.305C141.888 257.952 141.618 257.736 141.265 257.657C140.913 257.579 140.535 257.646 140.134 257.859L138.576 258.688L139.774 260.942L141.374 260.091ZM149.295 253.268C149.409 253.483 149.498 253.684 149.563 253.872L145.19 256.197C145.468 256.635 145.832 256.912 146.284 257.027C146.736 257.142 147.184 257.082 147.627 256.846C148.264 256.507 148.572 256.001 148.552 255.328L149.83 254.649C149.936 255.267 149.851 255.868 149.575 256.45C149.301 257.022 148.829 257.486 148.157 257.843C147.61 258.134 147.054 258.274 146.489 258.264C145.927 258.243 145.404 258.077 144.919 257.766C144.437 257.445 144.04 256.99 143.727 256.402C143.414 255.813 143.258 255.235 143.257 254.666C143.26 254.087 143.412 253.563 143.713 253.092C144.02 252.618 144.454 252.232 145.015 251.933C145.555 251.646 146.099 251.508 146.646 251.519C147.194 251.53 147.7 251.687 148.163 251.991C148.623 252.288 149.001 252.714 149.295 253.268ZM147.86 253.551C147.621 253.119 147.28 252.852 146.835 252.751C146.391 252.65 145.943 252.719 145.493 252.958C145.085 253.175 144.805 253.493 144.654 253.91C144.499 254.321 144.512 254.763 144.692 255.236L147.86 253.551ZM154.183 254.639C153.733 254.878 153.286 255.014 152.841 255.046C152.4 255.068 152.001 254.995 151.646 254.829C151.288 254.655 151.009 254.399 150.811 254.06L152.037 253.409C152.187 253.64 152.41 253.784 152.706 253.839C153.005 253.884 153.314 253.822 153.632 253.653C153.965 253.476 154.188 253.278 154.302 253.057C154.419 252.826 154.424 252.611 154.317 252.41C154.203 252.195 154.014 252.091 153.751 252.098C153.495 252.101 153.113 252.157 152.603 252.268C152.111 252.379 151.701 252.451 151.372 252.484C151.043 252.516 150.717 252.472 150.395 252.35C150.08 252.225 149.822 251.975 149.624 251.601C149.462 251.296 149.404 250.972 149.452 250.627C149.496 250.275 149.645 249.938 149.9 249.616C150.162 249.29 150.511 249.011 150.948 248.779C151.598 248.433 152.21 248.321 152.781 248.444C153.356 248.555 153.808 248.888 154.137 249.441L152.953 250.071C152.796 249.825 152.584 249.676 152.316 249.623C152.048 249.57 151.755 249.629 151.436 249.798C151.125 249.964 150.917 250.15 150.813 250.356C150.71 250.562 150.71 250.762 150.813 250.956C150.894 251.108 151.017 251.207 151.183 251.252C151.349 251.297 151.528 251.308 151.721 251.285C151.909 251.256 152.184 251.204 152.543 251.128C153.017 251.018 153.417 250.952 153.743 250.93C154.072 250.897 154.392 250.94 154.704 251.058C155.016 251.177 155.273 251.418 155.475 251.781C155.648 252.106 155.712 252.445 155.669 252.797C155.625 253.149 155.475 253.486 155.22 253.808C154.972 254.126 154.626 254.403 154.183 254.639ZM156.457 247.209L158.141 250.376C158.255 250.591 158.386 250.721 158.535 250.767C158.687 250.801 158.884 250.754 159.126 250.625L159.853 250.239L160.378 251.226L159.443 251.723C158.91 252.006 158.435 252.099 158.019 252C157.602 251.902 157.245 251.572 156.947 251.012L155.262 247.844L154.587 248.203L154.073 247.237L154.749 246.878L153.992 245.455L155.186 244.82L155.943 246.243L157.335 245.503L157.848 246.469L156.457 247.209ZM164.577 239.733L165.091 240.699L162.027 242.328L163.159 244.458L165.548 243.188L166.061 244.153L163.672 245.424L165.351 248.581L164.167 249.211L160.329 241.992L164.577 239.733ZM166.669 239.567C166.454 239.681 166.235 239.704 166.013 239.636C165.79 239.568 165.622 239.427 165.507 239.212C165.393 238.997 165.37 238.779 165.438 238.556C165.506 238.333 165.648 238.165 165.863 238.051C166.07 237.94 166.285 237.919 166.508 237.987C166.731 238.055 166.899 238.197 167.013 238.411C167.128 238.626 167.151 238.845 167.083 239.067C167.014 239.29 166.877 239.457 166.669 239.567ZM167.654 240.016L170.697 245.739L169.512 246.369L166.47 240.646L167.654 240.016ZM172.046 237.561C172.496 237.321 172.947 237.201 173.4 237.2C173.859 237.196 174.287 237.324 174.683 237.584C175.079 237.844 175.415 238.234 175.691 238.753L177.486 242.129L176.312 242.753L174.611 239.554C174.339 239.042 174.003 238.719 173.603 238.585C173.199 238.444 172.776 238.491 172.333 238.727C171.89 238.963 171.61 239.289 171.494 239.706C171.382 240.112 171.462 240.571 171.734 241.084L173.435 244.283L172.251 244.912L169.208 239.189L170.392 238.56L170.74 239.214C170.809 238.876 170.957 238.561 171.185 238.272C171.42 237.978 171.707 237.741 172.046 237.561ZM177.066 238.648C176.761 238.074 176.608 237.502 176.608 236.934C176.614 236.362 176.757 235.846 177.037 235.386C177.32 234.916 177.711 234.549 178.209 234.284C178.659 234.044 179.099 233.926 179.527 233.93C179.958 233.922 180.344 233.997 180.685 234.153L180.243 233.322L181.437 232.687L184.48 238.41L183.286 239.045L182.833 238.193C182.776 238.57 182.622 238.941 182.371 239.305C182.121 239.669 181.774 239.969 181.331 240.204C180.839 240.466 180.323 240.581 179.782 240.548C179.237 240.509 178.724 240.329 178.242 240.008C177.764 239.676 177.372 239.223 177.066 238.648ZM181.762 236.178C181.552 235.784 181.286 235.485 180.966 235.283C180.652 235.077 180.323 234.967 179.979 234.955C179.634 234.942 179.31 235.017 179.005 235.179C178.701 235.341 178.457 235.568 178.275 235.861C178.089 236.146 177.991 236.478 177.979 236.857C177.971 237.226 178.072 237.608 178.281 238.002C178.491 238.397 178.755 238.701 179.073 238.914C179.397 239.123 179.733 239.238 180.081 239.257C180.432 239.266 180.756 239.191 181.054 239.033C181.359 238.871 181.602 238.643 181.784 238.351C181.967 238.059 182.06 237.725 182.065 237.35C182.072 236.964 181.971 236.573 181.762 236.178ZM185.83 230.231C186.28 229.992 186.732 229.872 187.184 229.871C187.644 229.867 188.071 229.995 188.467 230.255C188.863 230.515 189.199 230.905 189.475 231.424L191.27 234.8L190.097 235.424L188.396 232.225C188.123 231.712 187.787 231.389 187.387 231.255C186.984 231.115 186.56 231.162 186.117 231.398C185.674 231.633 185.395 231.96 185.279 232.376C185.166 232.783 185.246 233.242 185.519 233.754L187.22 236.954L186.035 237.583L182.993 231.86L184.177 231.231L184.524 231.885C184.593 231.546 184.741 231.232 184.969 230.942C185.204 230.649 185.491 230.412 185.83 230.231ZM190.862 231.34C190.549 230.751 190.392 230.173 190.392 229.605C190.395 229.026 190.543 228.503 190.837 228.036C191.13 227.569 191.551 227.19 192.098 226.899C192.79 226.531 193.45 226.393 194.076 226.486C194.706 226.569 195.263 226.872 195.746 227.397L194.469 228.076C194.214 227.848 193.93 227.714 193.617 227.677C193.304 227.639 192.974 227.712 192.628 227.896C192.143 228.154 191.847 228.533 191.741 229.034C191.637 229.524 191.749 230.077 192.077 230.694C192.405 231.31 192.802 231.716 193.27 231.911C193.745 232.103 194.225 232.07 194.71 231.812C195.395 231.447 195.689 230.905 195.59 230.185L196.867 229.505C197.011 230.175 196.946 230.805 196.673 231.394C196.396 231.977 195.919 232.448 195.24 232.809C194.693 233.1 194.144 233.236 193.593 233.219C193.038 233.194 192.521 233.024 192.043 232.71C191.568 232.385 191.175 231.928 190.862 231.34ZM202.658 224.895C202.772 225.109 202.861 225.311 202.925 225.498L198.553 227.823C198.83 228.262 199.195 228.539 199.647 228.654C200.099 228.769 200.546 228.708 200.989 228.473C201.627 228.134 201.935 227.628 201.914 226.955L203.192 226.276C203.299 226.894 203.214 227.494 202.937 228.077C202.664 228.648 202.191 229.113 201.52 229.47C200.973 229.761 200.417 229.901 199.851 229.891C199.29 229.87 198.766 229.704 198.281 229.393C197.8 229.072 197.402 228.617 197.089 228.028C196.777 227.44 196.62 226.861 196.62 226.293C196.623 225.714 196.775 225.189 197.075 224.719C197.382 224.244 197.816 223.858 198.377 223.56C198.917 223.273 199.461 223.135 200.009 223.146C200.556 223.156 201.062 223.314 201.526 223.618C201.986 223.915 202.363 224.341 202.658 224.895ZM201.223 225.178C200.984 224.745 200.642 224.479 200.198 224.377C199.753 224.276 199.306 224.345 198.856 224.585C198.447 224.802 198.167 225.119 198.016 225.537C197.862 225.948 197.875 226.39 198.055 226.862L201.223 225.178ZM211.685 222.053L208.662 223.66L208.927 225.411L207.691 226.069L206.433 217.465L207.804 216.736L214.234 222.589L212.988 223.252L211.685 222.053ZM210.839 221.264L207.881 218.533L208.481 222.518L210.839 221.264ZM213.947 216.48C214.008 216.11 214.164 215.743 214.414 215.379C214.665 215.015 215.008 214.717 215.445 214.485C215.943 214.22 216.463 214.104 217.004 214.136C217.548 214.157 218.056 214.327 218.527 214.645C218.998 214.963 219.386 215.409 219.692 215.984C219.998 216.559 220.154 217.137 220.162 217.719C220.166 218.294 220.028 218.821 219.749 219.298C219.473 219.764 219.085 220.13 218.587 220.395C218.151 220.627 217.717 220.747 217.286 220.754C216.851 220.754 216.456 220.68 216.101 220.531L217.99 224.083L216.806 224.713L212.316 216.269L213.5 215.639L213.947 216.48ZM218.487 216.624C218.277 216.23 218.014 215.935 217.697 215.739C217.383 215.533 217.052 215.429 216.705 215.427C216.361 215.415 216.036 215.49 215.732 215.652C215.434 215.81 215.19 216.037 215.001 216.333C214.819 216.625 214.722 216.961 214.711 217.34C214.706 217.716 214.809 218.101 215.019 218.495C215.229 218.89 215.492 219.194 215.81 219.407C216.131 219.609 216.463 219.717 216.807 219.729C217.158 219.738 217.483 219.663 217.78 219.505C218.085 219.343 218.329 219.116 218.511 218.824C218.696 218.521 218.789 218.178 218.79 217.796C218.798 217.41 218.697 217.019 218.487 216.624ZM220.987 212.737C221.048 212.368 221.203 212.001 221.454 211.636C221.704 211.272 222.048 210.974 222.484 210.742C222.982 210.477 223.502 210.361 224.043 210.393C224.588 210.414 225.095 210.584 225.566 210.902C226.037 211.22 226.426 211.666 226.731 212.241C227.037 212.816 227.193 213.394 227.201 213.976C227.205 214.552 227.067 215.078 226.788 215.555C226.512 216.021 226.125 216.387 225.626 216.652C225.19 216.884 224.756 217.004 224.325 217.011C223.89 217.011 223.495 216.937 223.14 216.788L225.029 220.34L223.845 220.97L219.355 212.526L220.539 211.896L220.987 212.737ZM225.526 212.882C225.317 212.487 225.053 212.192 224.736 211.996C224.422 211.79 224.091 211.686 223.744 211.684C223.4 211.672 223.076 211.747 222.771 211.909C222.473 212.067 222.23 212.294 222.041 212.59C221.859 212.882 221.762 213.218 221.75 213.597C221.746 213.973 221.848 214.358 222.058 214.752C222.268 215.147 222.532 215.451 222.849 215.664C223.17 215.867 223.502 215.974 223.847 215.986C224.198 215.995 224.522 215.92 224.82 215.762C225.124 215.6 225.368 215.373 225.55 215.081C225.735 214.778 225.828 214.435 225.829 214.053C225.837 213.667 225.736 213.276 225.526 212.882ZM235.467 211.393C234.795 211.75 234.092 211.924 233.359 211.914C232.629 211.894 231.948 211.692 231.318 211.308C230.69 210.913 230.189 210.363 229.813 209.656C229.438 208.95 229.264 208.23 229.291 207.496C229.325 206.758 229.54 206.085 229.935 205.475C230.333 204.854 230.868 204.366 231.54 204.009C232.219 203.648 232.923 203.477 233.653 203.498C234.387 203.507 235.065 203.706 235.689 204.094C236.313 204.482 236.812 205.029 237.188 205.735C237.563 206.442 237.739 207.165 237.716 207.906C237.689 208.64 237.476 209.317 237.077 209.937C236.682 210.547 236.145 211.033 235.467 211.393ZM234.92 210.365C235.398 210.111 235.766 209.777 236.026 209.364C236.282 208.943 236.407 208.477 236.402 207.965C236.399 207.442 236.256 206.915 235.973 206.381C235.689 205.848 235.333 205.438 234.905 205.15C234.484 204.859 234.029 204.706 233.541 204.69C233.053 204.674 232.57 204.793 232.092 205.047C231.615 205.301 231.246 205.635 230.986 206.048C230.726 206.462 230.596 206.927 230.595 207.442C230.6 207.954 230.745 208.477 231.029 209.01C231.312 209.543 231.666 209.959 232.091 210.257C232.519 210.544 232.979 210.7 233.471 210.722C233.959 210.738 234.442 210.619 234.92 210.365ZM240.075 201.389C240.525 201.15 240.977 201.03 241.429 201.029C241.889 201.024 242.316 201.152 242.712 201.412C243.108 201.673 243.444 202.062 243.72 202.582L245.515 205.957L244.341 206.581L242.64 203.382C242.368 202.87 242.032 202.547 241.632 202.413C241.229 202.272 240.805 202.32 240.362 202.555C239.919 202.791 239.64 203.117 239.524 203.534C239.411 203.94 239.491 204.4 239.763 204.912L241.464 208.111L240.28 208.741L237.237 203.018L238.421 202.388L238.769 203.042C238.838 202.704 238.986 202.39 239.214 202.1C239.449 201.806 239.736 201.569 240.075 201.389ZM252.076 195.967C252.271 196.334 252.369 196.726 252.369 197.144C252.369 197.561 252.234 197.975 251.963 198.385C251.689 198.789 251.254 199.149 250.659 199.465L249.35 200.161L250.908 203.09L249.723 203.72L245.885 196.501L248.378 195.176C248.932 194.881 249.451 194.729 249.935 194.721C250.422 194.702 250.846 194.805 251.206 195.031C251.573 195.253 251.863 195.565 252.076 195.967ZM250.145 198.499C250.595 198.26 250.878 197.981 250.993 197.662C251.104 197.337 251.06 196.987 250.861 196.613C250.441 195.824 249.785 195.667 248.892 196.142L247.583 196.837L248.837 199.195L250.145 198.499ZM252.998 192.12L257.085 199.806L255.901 200.435L251.814 192.749L252.998 192.12ZM256.709 196.301C256.404 195.727 256.251 195.155 256.251 194.587C256.257 194.015 256.4 193.499 256.68 193.039C256.963 192.569 257.354 192.202 257.852 191.937C258.302 191.697 258.741 191.579 259.17 191.583C259.601 191.575 259.987 191.65 260.328 191.806L259.886 190.975L261.08 190.34L264.123 196.063L262.929 196.698L262.476 195.846C262.419 196.223 262.265 196.594 262.014 196.958C261.764 197.322 261.417 197.622 260.974 197.858C260.482 198.119 259.966 198.234 259.425 198.202C258.88 198.163 258.367 197.982 257.885 197.661C257.407 197.329 257.015 196.876 256.709 196.301ZM261.405 193.832C261.195 193.437 260.929 193.138 260.609 192.936C260.295 192.73 259.966 192.62 259.622 192.608C259.277 192.596 258.953 192.67 258.648 192.832C258.344 192.994 258.1 193.221 257.918 193.514C257.732 193.799 257.634 194.131 257.622 194.51C257.614 194.879 257.715 195.261 257.924 195.655C258.134 196.05 258.398 196.354 258.716 196.567C259.04 196.776 259.376 196.891 259.724 196.91C260.075 196.919 260.399 196.844 260.697 196.686C261.002 196.524 261.245 196.297 261.427 196.004C261.61 195.712 261.703 195.378 261.708 195.003C261.715 194.617 261.614 194.226 261.405 193.832ZM267.787 186.774L268.75 197.054L267.524 197.705L267.207 194.303L261.96 189.872L263.279 189.171L267.209 192.677L266.562 187.426L267.787 186.774ZM273.851 191.011C273.401 191.25 272.953 191.386 272.508 191.418C272.067 191.44 271.669 191.367 271.314 191.201C270.955 191.027 270.677 190.771 270.479 190.432L271.704 189.781C271.854 190.012 272.077 190.155 272.373 190.211C272.672 190.256 272.981 190.194 273.3 190.025C273.632 189.848 273.855 189.649 273.969 189.429C274.086 189.198 274.091 188.982 273.984 188.781C273.87 188.567 273.682 188.463 273.419 188.469C273.163 188.472 272.78 188.529 272.27 188.64C271.779 188.751 271.368 188.822 271.039 188.855C270.71 188.888 270.385 188.844 270.062 188.722C269.747 188.596 269.49 188.347 269.291 187.973C269.129 187.668 269.072 187.343 269.119 186.998C269.163 186.646 269.312 186.309 269.568 185.987C269.83 185.661 270.179 185.383 270.615 185.151C271.266 184.805 271.877 184.693 272.448 184.815C273.023 184.927 273.475 185.26 273.805 185.813L272.621 186.442C272.464 186.197 272.251 186.048 271.983 185.995C271.715 185.942 271.422 186 271.103 186.17C270.792 186.335 270.584 186.521 270.481 186.727C270.377 186.934 270.377 187.133 270.48 187.327C270.561 187.48 270.684 187.578 270.85 187.623C271.016 187.668 271.196 187.68 271.388 187.657C271.577 187.628 271.851 187.575 272.21 187.5C272.685 187.39 273.085 187.324 273.41 187.301C273.739 187.269 274.06 187.311 274.371 187.43C274.683 187.548 274.94 187.789 275.142 188.153C275.315 188.478 275.38 188.817 275.336 189.169C275.292 189.521 275.143 189.858 274.888 190.18C274.639 190.498 274.294 190.775 273.851 191.011ZM276.124 183.58L277.808 186.748C277.922 186.963 278.054 187.093 278.202 187.138C278.354 187.173 278.551 187.126 278.793 186.997L279.52 186.611L280.045 187.597L279.11 188.094C278.577 188.378 278.102 188.47 277.686 188.372C277.269 188.274 276.912 187.944 276.614 187.383L274.93 184.215L274.254 184.574L273.741 183.608L274.416 183.249L273.659 181.827L274.854 181.191L275.61 182.614L277.002 181.874L277.516 182.84L276.124 183.58ZM283.668 185.791C283.128 186.078 282.576 186.216 282.011 186.206C281.442 186.188 280.915 186.024 280.43 185.714C279.942 185.396 279.541 184.943 279.228 184.355C278.919 183.773 278.772 183.189 278.789 182.603C278.806 182.016 278.972 181.484 279.286 181.006C279.6 180.528 280.031 180.144 280.578 179.853C281.125 179.562 281.685 179.42 282.257 179.427C282.829 179.434 283.362 179.594 283.858 179.908C284.353 180.222 284.756 180.669 285.065 181.251C285.374 181.833 285.517 182.418 285.493 183.008C285.469 183.598 285.295 184.14 284.971 184.632C284.65 185.113 284.215 185.5 283.668 185.791ZM283.122 184.762C283.426 184.6 283.672 184.377 283.857 184.091C284.05 183.802 284.152 183.468 284.164 183.089C284.175 182.71 284.071 182.313 283.85 181.897C283.629 181.482 283.363 181.174 283.053 180.975C282.739 180.769 282.412 180.663 282.072 180.658C281.731 180.652 281.409 180.73 281.104 180.892C280.799 181.054 280.554 181.278 280.368 181.563C280.189 181.845 280.101 182.172 280.103 182.544C280.102 182.908 280.212 183.299 280.433 183.714C280.76 184.33 281.17 184.725 281.662 184.899C282.157 185.062 282.644 185.016 283.122 184.762ZM286.343 177.974C286.361 177.591 286.47 177.244 286.669 176.934C286.872 176.613 287.17 176.348 287.565 176.138L288.217 177.364L287.915 177.524C287.452 177.771 287.161 178.076 287.044 178.44C286.934 178.801 287.033 179.272 287.342 179.854L288.944 182.866L287.76 183.495L284.717 177.772L285.901 177.143L286.343 177.974ZM295.395 175.585C295.509 175.8 295.599 176.001 295.663 176.189L291.29 178.514C291.568 178.953 291.933 179.229 292.384 179.344C292.836 179.459 293.284 179.399 293.727 179.163C294.364 178.825 294.672 178.319 294.652 177.646L295.93 176.966C296.036 177.585 295.951 178.185 295.675 178.767C295.401 179.339 294.929 179.803 294.257 180.16C293.71 180.451 293.154 180.592 292.589 180.581C292.027 180.56 291.504 180.394 291.019 180.084C290.537 179.762 290.14 179.308 289.827 178.719C289.514 178.13 289.358 177.552 289.357 176.984C289.36 176.405 289.512 175.88 289.813 175.409C290.12 174.935 290.554 174.549 291.115 174.251C291.655 173.963 292.199 173.825 292.746 173.836C293.294 173.847 293.8 174.004 294.263 174.308C294.723 174.606 295.101 175.031 295.395 175.585ZM293.96 175.868C293.721 175.436 293.38 175.169 292.935 175.068C292.491 174.967 292.043 175.036 291.593 175.275C291.185 175.492 290.905 175.81 290.754 176.228C290.599 176.639 290.612 177.08 290.792 177.553L293.96 175.868Z" fill="white"/>
<line x1="308.912" y1="137.726" x2="307.498" y2="178.219" stroke="white" stroke-width="0.653522"/>
<path d="M468.856 260.417V262.476H471.62V263.781H468.856V265.958H471.973V267.299H467.209V259.076H471.973V260.417H468.856ZM477.069 267.299L475.728 265.275L474.54 267.299H472.775L474.905 264.028L472.752 260.782H474.61L475.94 262.793L477.14 260.782H478.904L476.763 264.028L478.928 267.299H477.069ZM481.469 261.723C481.681 261.425 481.971 261.178 482.339 260.982C482.716 260.778 483.143 260.676 483.622 260.676C484.178 260.676 484.68 260.813 485.127 261.088C485.582 261.362 485.939 261.754 486.198 262.264C486.465 262.766 486.598 263.35 486.598 264.017C486.598 264.683 486.465 265.275 486.198 265.793C485.939 266.303 485.582 266.699 485.127 266.981C484.68 267.263 484.178 267.404 483.622 267.404C483.143 267.404 482.72 267.306 482.351 267.11C481.991 266.914 481.696 266.667 481.469 266.369V270.404H479.822V260.782H481.469V261.723ZM484.916 264.017C484.916 263.624 484.833 263.287 484.669 263.005C484.512 262.715 484.3 262.495 484.033 262.346C483.775 262.197 483.492 262.123 483.186 262.123C482.888 262.123 482.606 262.201 482.339 262.358C482.081 262.507 481.869 262.727 481.704 263.017C481.547 263.307 481.469 263.648 481.469 264.04C481.469 264.432 481.547 264.773 481.704 265.064C481.869 265.354 482.081 265.577 482.339 265.734C482.606 265.883 482.888 265.958 483.186 265.958C483.492 265.958 483.775 265.879 484.033 265.722C484.3 265.565 484.512 265.342 484.669 265.052C484.833 264.762 484.916 264.417 484.916 264.017ZM487.371 264.017C487.371 263.358 487.5 262.774 487.759 262.264C488.026 261.754 488.383 261.362 488.83 261.088C489.285 260.813 489.79 260.676 490.347 260.676C490.833 260.676 491.257 260.774 491.618 260.97C491.986 261.166 492.28 261.413 492.5 261.711V260.782H494.159V267.299H492.5V266.346C492.288 266.652 491.994 266.906 491.618 267.11C491.249 267.306 490.822 267.404 490.335 267.404C489.787 267.404 489.285 267.263 488.83 266.981C488.383 266.699 488.026 266.303 487.759 265.793C487.5 265.275 487.371 264.683 487.371 264.017ZM492.5 264.04C492.5 263.64 492.422 263.299 492.265 263.017C492.108 262.727 491.896 262.507 491.629 262.358C491.363 262.201 491.077 262.123 490.771 262.123C490.465 262.123 490.183 262.197 489.924 262.346C489.665 262.495 489.453 262.715 489.289 263.005C489.132 263.287 489.053 263.624 489.053 264.017C489.053 264.409 489.132 264.754 489.289 265.052C489.453 265.342 489.665 265.565 489.924 265.722C490.19 265.879 490.473 265.958 490.771 265.958C491.077 265.958 491.363 265.883 491.629 265.734C491.896 265.577 492.108 265.358 492.265 265.075C492.422 264.785 492.5 264.44 492.5 264.04ZM499.378 260.688C500.155 260.688 500.782 260.935 501.261 261.429C501.739 261.915 501.978 262.597 501.978 263.475V267.299H500.331V263.699C500.331 263.181 500.202 262.785 499.943 262.511C499.684 262.229 499.331 262.087 498.884 262.087C498.429 262.087 498.069 262.229 497.802 262.511C497.543 262.785 497.414 263.181 497.414 263.699V267.299H495.767V260.782H497.414V261.593C497.633 261.311 497.912 261.091 498.249 260.935C498.594 260.77 498.971 260.688 499.378 260.688ZM506.038 267.404C505.505 267.404 505.026 267.31 504.603 267.122C504.179 266.926 503.842 266.663 503.591 266.334C503.348 266.005 503.215 265.64 503.191 265.24H504.85C504.881 265.491 505.003 265.699 505.215 265.863C505.434 266.028 505.705 266.11 506.026 266.11C506.34 266.11 506.583 266.048 506.756 265.922C506.936 265.797 507.026 265.636 507.026 265.44C507.026 265.228 506.916 265.071 506.697 264.969C506.485 264.86 506.144 264.742 505.673 264.617C505.187 264.499 504.787 264.377 504.473 264.252C504.168 264.126 503.901 263.934 503.674 263.675C503.454 263.417 503.344 263.068 503.344 262.629C503.344 262.268 503.446 261.938 503.65 261.64C503.862 261.342 504.16 261.107 504.544 260.935C504.936 260.762 505.395 260.676 505.92 260.676C506.697 260.676 507.316 260.872 507.779 261.264C508.242 261.648 508.497 262.17 508.544 262.828H506.967C506.944 262.57 506.834 262.366 506.638 262.217C506.45 262.06 506.195 261.982 505.873 261.982C505.575 261.982 505.344 262.036 505.179 262.146C505.022 262.256 504.944 262.409 504.944 262.605C504.944 262.825 505.054 262.993 505.273 263.111C505.493 263.221 505.834 263.334 506.297 263.452C506.767 263.57 507.156 263.691 507.461 263.817C507.767 263.942 508.03 264.138 508.25 264.405C508.477 264.664 508.595 265.009 508.602 265.44C508.602 265.816 508.497 266.154 508.285 266.452C508.081 266.75 507.783 266.985 507.391 267.157C507.007 267.322 506.556 267.404 506.038 267.404ZM516.012 263.899C516.012 264.134 515.997 264.346 515.965 264.534H511.201C511.24 265.005 511.405 265.373 511.695 265.64C511.985 265.907 512.342 266.04 512.766 266.04C513.377 266.04 513.813 265.777 514.071 265.252H515.848C515.66 265.879 515.299 266.397 514.766 266.805C514.232 267.204 513.577 267.404 512.801 267.404C512.174 267.404 511.609 267.267 511.107 266.993C510.613 266.71 510.225 266.314 509.943 265.805C509.668 265.295 509.531 264.707 509.531 264.04C509.531 263.366 509.668 262.774 509.943 262.264C510.217 261.754 510.601 261.362 511.095 261.088C511.589 260.813 512.158 260.676 512.801 260.676C513.421 260.676 513.973 260.809 514.46 261.076C514.954 261.342 515.334 261.723 515.601 262.217C515.875 262.703 516.012 263.264 516.012 263.899ZM514.307 263.428C514.299 263.005 514.146 262.668 513.848 262.417C513.55 262.158 513.185 262.029 512.754 262.029C512.346 262.029 512.001 262.154 511.719 262.405C511.444 262.648 511.276 262.989 511.213 263.428H514.307Z" fill="black"/>
<path d="M471.458 279.637V280.609H468.373V282.753H470.778V283.725H468.373V286.904H467.181V279.637H471.458ZM473.755 281.979C473.929 281.686 474.159 281.46 474.445 281.3C474.738 281.132 475.083 281.049 475.48 281.049V282.282H475.177C474.71 282.282 474.354 282.401 474.11 282.638C473.873 282.875 473.755 283.286 473.755 283.872V286.904H472.563V281.143H473.755V281.979ZM481.856 283.882C481.856 284.098 481.842 284.294 481.814 284.468H477.412C477.447 284.928 477.618 285.297 477.925 285.576C478.231 285.855 478.608 285.994 479.054 285.994C479.695 285.994 480.148 285.726 480.413 285.189H481.699C481.525 285.719 481.208 286.155 480.748 286.496C480.295 286.831 479.73 286.998 479.054 286.998C478.503 286.998 478.008 286.876 477.569 286.632C477.137 286.381 476.795 286.033 476.544 285.587C476.3 285.134 476.178 284.611 476.178 284.018C476.178 283.426 476.297 282.906 476.534 282.46C476.778 282.007 477.116 281.659 477.548 281.415C477.987 281.171 478.489 281.049 479.054 281.049C479.598 281.049 480.082 281.167 480.507 281.404C480.933 281.641 481.264 281.976 481.501 282.408C481.738 282.833 481.856 283.325 481.856 283.882ZM480.612 283.506C480.605 283.067 480.448 282.715 480.141 282.45C479.835 282.185 479.455 282.052 479.002 282.052C478.59 282.052 478.238 282.185 477.946 282.45C477.653 282.708 477.479 283.06 477.423 283.506H480.612ZM488.31 283.882C488.31 284.098 488.296 284.294 488.268 284.468H483.866C483.901 284.928 484.071 285.297 484.378 285.576C484.685 285.855 485.061 285.994 485.507 285.994C486.149 285.994 486.602 285.726 486.867 285.189H488.153C487.979 285.719 487.661 286.155 487.201 286.496C486.748 286.831 486.184 286.998 485.507 286.998C484.957 286.998 484.462 286.876 484.023 286.632C483.59 286.381 483.249 286.033 482.998 285.587C482.754 285.134 482.632 284.611 482.632 284.018C482.632 283.426 482.75 282.906 482.987 282.46C483.231 282.007 483.57 281.659 484.002 281.415C484.441 281.171 484.943 281.049 485.507 281.049C486.051 281.049 486.536 281.167 486.961 281.404C487.386 281.641 487.717 281.976 487.954 282.408C488.191 282.833 488.31 283.325 488.31 283.882ZM487.065 283.506C487.058 283.067 486.902 282.715 486.595 282.45C486.288 282.185 485.908 282.052 485.455 282.052C485.044 282.052 484.692 282.185 484.399 282.45C484.106 282.708 483.932 283.06 483.876 283.506H487.065ZM496.894 279.637V280.609H494.96V286.904H493.767V280.609H491.823V279.637H496.894ZM499.293 281.979C499.467 281.686 499.697 281.46 499.983 281.3C500.276 281.132 500.621 281.049 501.018 281.049V282.282H500.715C500.248 282.282 499.893 282.401 499.649 282.638C499.412 282.875 499.293 283.286 499.293 283.872V286.904H498.101V281.143H499.293V281.979ZM502.721 280.379C502.505 280.379 502.323 280.306 502.177 280.16C502.031 280.013 501.957 279.832 501.957 279.616C501.957 279.4 502.031 279.219 502.177 279.072C502.323 278.926 502.505 278.853 502.721 278.853C502.93 278.853 503.108 278.926 503.254 279.072C503.4 279.219 503.473 279.4 503.473 279.616C503.473 279.832 503.4 280.013 503.254 280.16C503.108 280.306 502.93 280.379 502.721 280.379ZM503.306 281.143V286.904H502.114V281.143H503.306ZM504.474 283.997C504.474 283.419 504.592 282.906 504.829 282.46C505.073 282.014 505.401 281.669 505.812 281.425C506.231 281.174 506.691 281.049 507.193 281.049C507.646 281.049 508.039 281.139 508.374 281.32C508.716 281.495 508.988 281.714 509.19 281.979V281.143H510.392V286.904H509.19V286.047C508.988 286.319 508.712 286.545 508.364 286.726C508.015 286.908 507.618 286.998 507.172 286.998C506.677 286.998 506.224 286.873 505.812 286.622C505.401 286.364 505.073 286.008 504.829 285.555C504.592 285.095 504.474 284.576 504.474 283.997ZM509.19 284.018C509.19 283.621 509.106 283.276 508.939 282.983C508.778 282.69 508.566 282.467 508.301 282.314C508.036 282.16 507.75 282.084 507.443 282.084C507.137 282.084 506.851 282.16 506.586 282.314C506.321 282.46 506.105 282.68 505.938 282.973C505.777 283.258 505.697 283.6 505.697 283.997C505.697 284.395 505.777 284.743 505.938 285.043C506.105 285.343 506.321 285.573 506.586 285.733C506.858 285.886 507.144 285.963 507.443 285.963C507.75 285.963 508.036 285.886 508.301 285.733C508.566 285.58 508.778 285.357 508.939 285.064C509.106 284.764 509.19 284.416 509.19 284.018ZM513.15 279.166V286.904H511.958V279.166H513.15Z" fill="black"/>
<path d="M82.9315 306.908L58.3212 319.993L60.5692 333.738L43.7554 342.678L32.553 264.052L51.1516 254.163L110.071 307.418L93.0698 316.458L82.9315 306.908ZM72.2058 296.706L51.1979 276.911L55.9555 305.347L72.2058 296.706Z" fill="black"/>
<defs>
<filter id="filter0_f_101_98" x="203.036" y="108.421" width="313.025" height="318.499" filterUnits="userSpaceOnUse" color-interpolation-filters="sRGB">
<feFlood flood-opacity="0" result="BackgroundImageFix"/>
<feBlend mode="normal" in="SourceGraphic" in2="BackgroundImageFix" result="shape"/>
<feGaussianBlur stdDeviation="65.3521" result="effect1_foregroundBlur_101_98"/>
</filter>
<clipPath id="clip0_101_98">
<rect width="15.6845" height="15.6845" fill="white" transform="translate(333.96 135.324) rotate(-28)"/>
</clipPath>
<clipPath id="clip1_101_98">
<rect width="15.6845" height="15.6845" fill="white" transform="translate(98.5345 260.503) rotate(-28)"/>
</clipPath>
</defs>
</svg>
